<?xml version="1.0" encoding="utf-8"?>
<!-- Generator: Adobe Illustrator 25.4.1, SVG Export Plug-In . SVG Version: 6.00 Build 0)  -->
<svg version="1.1"
	 id="svg2" inkscape:version="0.47 r22583" sodipodi:docname="CoatFlag.svg" xmlns:cc="http://creativecommons.org/ns#" xmlns:dc="http://purl.org/dc/elements/1.1/" xmlns:inkscape="http://www.inkscape.org/namespaces/inkscape" xmlns:rdf="http://www.w3.org/1999/02/22-rdf-syntax-ns#" xmlns:sodipodi="http://sodipodi.sourceforge.net/DTD/sodipodi-0.dtd" xmlns:svg="http://www.w3.org/2000/svg"
	 xmlns="http://www.w3.org/2000/svg" xmlns:xlink="http://www.w3.org/1999/xlink" x="0px" y="0px" viewBox="0 0 248.1 48.8"
	 style="enable-background:new 0 0 248.1 48.8;" xml:space="preserve">
<style type="text/css">
	.st0{fill-rule:evenodd;clip-rule:evenodd;fill:#000088;}
</style>
<sodipodi:namedview  bordercolor="#666666" borderopacity="1" gridtolerance="10" guidetolerance="10" id="namedview20" inkscape:current-layer="svg2" inkscape:cx="52.777778" inkscape:cy="26" inkscape:pageopacity="0" inkscape:pageshadow="2" inkscape:window-height="1004" inkscape:window-maximized="1" inkscape:window-width="1280" inkscape:window-x="-8" inkscape:window-y="-8" inkscape:zoom="2.16" objecttolerance="10" pagecolor="#ffffff" showgrid="false">
	</sodipodi:namedview>
<defs>
	
		<inkscape:perspective  id="perspective24" inkscape:persp3d-origin="125 : 17.333333 : 1" inkscape:vp_x="0 : 26 : 1" inkscape:vp_y="0 : 1000 : 0" inkscape:vp_z="250 : 26 : 1" sodipodi:type="inkscape:persp3d">
		</inkscape:perspective>
</defs>
<g id="layer1" transform="translate(-173.76543,-272.64083)">
	<g id="g2420" transform="matrix(1.0806398,0,0,1.0806398,-170.89662,249.83272)">
		<path id="path2384" class="st0" d="M513.4,55.4l17.1-23.5h8.1l-17.1,23.5H513.4z M503.5,21.1h45.1v45.1h-45.1V21.1z M509.8,27.4
			v32.5h32.4V27.4H509.8L509.8,27.4z"/>
		<g id="g2386">
			<path id="path2388" class="st0" d="M328.9,49.9l-0.9-0.5l-0.9-0.3l-1-0.2l-1-0.1h-3.8V64h3.3l1.4-0.1l1.2-0.2l1.1-0.4l0.9-0.5
				l0.8-0.7l0.6-0.9l0.4-1l0.3-1.1l0.2-1.3l0.1-1.5l-0.1-1.2l-0.2-1.2l-0.3-1.1l-0.4-1.1l-0.7-1L328.9,49.9z M326.4,65.8l-1.6,0.1
				h-5.9v-19h5.4l1.3,0.1l1.4,0.1l1.3,0.3l1.2,0.4l1.2,0.6l0.9,0.8l0.8,0.9l0.6,1.1l0.5,1.1l0.3,1.3l0.2,1.4l0,1.4l0,1.5l-0.3,1.4
				l-0.4,1.3l-0.5,1.2l-0.7,1.1l-0.8,0.9l-1,0.8l-1.1,0.6l-1.4,0.4L326.4,65.8z"/>
			<path id="path2390" class="st0" d="M341.7,54l-0.9,0.1l-0.8,0.4l-0.7,0.5l-0.5,0.7l-0.4,0.8l-0.3,0.8l-0.1,0.9h7.1l-0.1-0.9
				l-0.2-0.9l-0.3-0.8l-0.5-0.6l-0.6-0.5l-0.8-0.4L341.7,54z M338,59.8v0.3l0,0.9l0.2,0.8l0.3,0.8l0.4,0.7l0.6,0.6l0.7,0.5l0.8,0.3
				l0.9,0.1l0.9-0.1l0.8-0.3l0.6-0.4l0.5-0.6l0.4-0.7l0.2-0.9h2.1l-0.3,1.3l-0.5,1l-0.7,0.8l-0.8,0.7l-1,0.5l-1.1,0.2l-1.2,0.1
				l-1.3-0.1l-1.1-0.3l-1-0.5l-0.8-0.6l-0.7-0.8l-0.5-0.9L336,62l-0.3-1.2l-0.1-1.3l0.1-1.3l0.3-1.2l0.4-1.1l0.5-0.9l0.7-0.9
				l0.8-0.7l1-0.5l1.1-0.3l1.3-0.1l1.2,0.1l1,0.2l0.9,0.5l0.7,0.7l0.5,0.7l0.5,0.9l0.4,0.9l0.2,1l0.1,1.1l0,1.1L338,59.8L338,59.8z"
				/>
			<polygon id="polygon2392" class="st0" points="358.5,66 358.4,63.9 357.7,64.7 357,65.4 356.2,65.8 355.3,66 354.2,66.2 
				353.1,66 352.1,65.8 351.3,65.4 350.7,64.8 350.2,64 349.9,63.1 349.7,62.1 349.7,61 349.7,52.7 352,52.7 352,60.8 352,61.5 
				352.1,62.2 352.3,62.8 352.6,63.3 352.9,63.8 353.4,64.1 354.1,64.3 354.9,64.4 355.8,64.3 356.6,64 357.2,63.5 357.6,63 
				358,62.3 358.2,61.5 358.3,60.6 358.4,59.7 358.4,52.7 360.6,52.7 360.6,62.6 360.7,66 			"/>
			<polygon id="polygon2394" class="st0" points="367.9,66.2 367,66.1 366.3,65.8 365.7,65.4 365.2,64.8 364.9,64 364.8,63.1 
				364.8,54.3 362.3,54.3 362.3,52.7 364.8,52.7 364.8,50.1 367,49.2 367,52.7 369.9,52.7 369.9,54.3 367,54.3 367,62.8 367.2,63.4 
				367.3,63.8 367.7,64.1 368.1,64.3 368.8,64.3 370,64.2 370,66 369,66.1 			"/>
			<polygon id="polygon2396" class="st0" points="376.2,66.3 375.2,66.2 374.3,66 373.5,65.7 372.7,65.3 372.1,64.7 371.6,64 
				371.3,63 371.2,61.9 373.5,61.9 373.5,62.8 373.9,63.4 374.3,64 374.8,64.3 375.5,64.6 376.4,64.7 377,64.6 377.7,64.4 
				378.3,64.1 378.8,63.6 379.1,63.1 379.2,62.4 379.1,61.8 378.9,61.3 378.5,60.9 378,60.6 377.2,60.3 376.3,60 375.4,59.8 
				374.7,59.7 374,59.4 373.4,59.1 372.8,58.7 372.3,58.2 371.9,57.7 371.7,57 371.6,56.2 371.7,55.3 372,54.4 372.5,53.8 
				373.1,53.3 373.9,52.9 374.7,52.6 375.6,52.4 376.5,52.4 377.4,52.4 378.3,52.6 379,52.9 379.7,53.3 380.3,53.9 380.8,54.5 
				381,55.4 381.2,56.4 378.9,56.4 378.8,55.6 378.5,54.9 377.9,54.4 377.3,54.1 376.4,54 375.8,54 375.2,54.2 374.6,54.4 
				374.2,54.8 373.9,55.3 373.8,55.9 373.9,56.5 374,56.9 374.4,57.3 374.9,57.6 375.9,58 376.7,58.2 377.6,58.4 378.3,58.6 
				379,58.9 379.7,59.2 380.2,59.6 380.8,60 381.1,60.6 381.4,61.3 381.5,62.1 381.4,63.1 381.1,63.9 380.6,64.5 380.1,65.1 
				379.5,65.6 378.7,65.8 377.9,66.1 377.1,66.2 			"/>
			<polygon id="polygon2398" class="st0" points="389.2,66.3 388,66.2 386.8,65.8 385.8,65.4 385,64.8 384.3,64 383.7,63 
				383.3,61.9 383.1,60.8 383,59.5 383.1,58.2 383.3,56.9 383.7,55.8 384.3,54.8 385,53.9 385.8,53.3 386.8,52.7 388,52.4 
				389.3,52.3 390.4,52.3 391.4,52.6 392.2,52.9 392.9,53.4 393.6,54.1 394.1,54.9 394.4,55.9 394.6,57 392.4,57 392.2,56 392,55.3 
				391.5,54.7 390.9,54.3 390.2,54.1 389.3,54 388.4,54.1 387.6,54.3 387,54.7 386.4,55.3 386,56 385.7,56.8 385.5,57.6 385.4,58.5 
				385.3,59.3 385.4,60.2 385.5,61 385.7,61.9 386.1,62.6 386.4,63.3 387,63.8 387.6,64.3 388.4,64.5 389.2,64.7 390.1,64.5 
				390.9,64.2 391.5,63.8 392,63.2 392.3,62.4 392.4,61.5 394.7,61.5 394.5,62.6 394.1,63.6 393.6,64.4 392.9,65.1 392.2,65.6 
				391.3,65.9 390.3,66.2 			"/>
			<polygon id="polygon2400" class="st0" points="405.6,65.9 405.6,57.8 405.5,57.1 405.4,56.4 405.2,55.8 405,55.3 404.6,54.8 
				404.1,54.5 403.4,54.3 402.6,54.3 401.7,54.4 401,54.6 400.3,55.1 399.9,55.7 399.5,56.4 399.3,57.2 399.2,58 399.1,58.9 
				399.1,65.9 396.9,65.9 396.9,46.9 399.1,46.9 399.1,54.7 399.7,53.9 400.4,53.3 401.3,52.8 402.2,52.6 403.2,52.5 404.4,52.6 
				405.3,52.8 406.1,53.3 406.8,53.8 407.3,54.6 407.5,55.4 407.7,56.5 407.8,57.7 407.8,65.9 			"/>
			<path id="path2402" class="st0" d="M416.2,54l-0.9,0.1l-0.8,0.4l-0.6,0.5l-0.5,0.7l-0.4,0.8l-0.2,0.8l-0.2,0.9h7l-0.1-0.9
				l-0.2-0.9l-0.3-0.8l-0.5-0.6l-0.6-0.5l-0.7-0.4L416.2,54z M412.5,59.8v0.3l0,0.9l0.2,0.8l0.3,0.8l0.4,0.7l0.6,0.6l0.6,0.5
				l0.7,0.3l0.9,0.1l0.9-0.1l0.7-0.3l0.6-0.4l0.5-0.6l0.4-0.7l0.2-0.9h2.1l-0.3,1.3l-0.5,1l-0.7,0.8l-0.8,0.7l-1,0.5l-1.1,0.2
				l-1.2,0.1l-1.2-0.1l-1.1-0.3l-0.9-0.5l-0.8-0.6l-0.7-0.8l-0.5-0.9l-0.4-1.1l-0.3-1.2l-0.1-1.3l0.1-1.3l0.3-1.2l0.4-1.1l0.5-0.9
				l0.7-0.9l0.8-0.7l1-0.5l1.1-0.3l1.3-0.1l1.2,0.1l1,0.2l0.9,0.5L420,54l0.6,0.7l0.5,0.9l0.4,0.9l0.2,1l0.1,1.1l0.1,1.1L412.5,59.8
				L412.5,59.8z"/>
			<path id="path2404" class="st0" d="M436.5,57h-3.9v7h3.9l0.8,0l0.7-0.1l0.7-0.2l0.6-0.2l0.5-0.3l0.5-0.5l0.4-0.6l0.2-0.7l0.1-0.9
				l-0.1-0.9l-0.2-0.8l-0.4-0.7l-0.5-0.5l-0.7-0.3l-0.7-0.2l-0.8-0.1L436.5,57z M436.5,48.8h-3.9v6.4h3.5l0.8,0l0.8-0.1l0.6-0.2
				l0.6-0.4l0.4-0.4l0.4-0.6l0.2-0.8l0.1-0.8L440,51l-0.3-0.7l-0.4-0.5l-0.6-0.4l-0.6-0.3l-0.8-0.2L436.5,48.8z M436.5,65.9h-6.2
				v-19h6.5l1,0.1l0.9,0.2l0.9,0.3l0.8,0.4l0.7,0.5l0.6,0.6l0.5,0.8l0.3,0.9l0.1,1.1l-0.1,1.1l-0.3,0.9l-0.5,0.8l-0.7,0.6l-0.8,0.5
				l-1,0.4l1,0.2l0.9,0.4l0.8,0.5l0.6,0.7l0.5,0.7l0.3,1l0.1,1.1l-0.1,1.2l-0.3,1l-0.5,0.8l-0.6,0.7l-0.7,0.5l-0.9,0.4l-0.9,0.3
				l-0.9,0.2l-1,0.1L436.5,65.9z"/>
			<path id="path2406" class="st0" d="M452.5,59.2h-0.7l-0.6,0.1l-0.7,0l-0.7,0.2l-0.7,0.2l-0.6,0.2l-0.5,0.4l-0.4,0.5l-0.3,0.6
				l-0.1,0.7l0.1,0.8l0.3,0.6l0.5,0.5l0.6,0.3l0.7,0.3l0.7,0l0.9,0l0.7-0.3l0.5-0.3l0.5-0.5L453,63l0.3-0.6l0.2-0.7l0.1-0.8l0-0.8
				v-0.8h-0.4l-0.4-0.1L452.5,59.2L452.5,59.2z M454.1,65.9l-0.2-1.8l-0.7,0.8l-0.7,0.6l-0.9,0.4l-0.9,0.3l-1.1,0l-0.9,0l-0.9-0.2
				l-0.7-0.3l-0.7-0.4l-0.5-0.6l-0.5-0.7l-0.2-0.9l-0.1-0.9l0.1-1l0.3-0.8l0.4-0.7l0.6-0.6l0.7-0.5l0.8-0.3l0.9-0.2l0.9-0.2l0.9-0.1
				l0.9,0h0.9l0.7,0h0.6v-0.7l0-0.9l-0.2-0.7l-0.3-0.6l-0.4-0.5l-0.6-0.4l-0.6-0.2l-0.8,0l-0.7,0l-0.7,0.1l-0.4,0.3l-0.4,0.5
				l-0.2,0.6l-0.2,0.8h-2.2l0.2-1l0.3-0.9l0.5-0.7l0.6-0.5l0.7-0.4l0.8-0.2l0.9-0.2l0.9-0.1l1.1,0.1l1,0.2l0.8,0.3l0.7,0.5l0.5,0.6
				l0.4,0.9l0.2,1l0.1,1.2v4.9l0.1,1.3l0.1,1.1l0.1,0.9l0.2,0.6L454.1,65.9L454.1,65.9z"/>
			<polygon id="polygon2408" class="st0" points="467.5,65.9 467.5,57.8 467.4,57.1 467.3,56.4 467.1,55.9 466.8,55.3 466.5,54.9 
				466,54.5 465.3,54.3 464.5,54.3 463.7,54.4 462.9,54.7 462.3,55.1 461.9,55.6 461.5,56.2 461.3,57 461.1,57.7 461,58.5 461,59.3 
				461,65.9 458.8,65.9 458.8,55.2 458.7,54.2 458.7,53.4 458.6,52.7 460.9,52.7 460.9,54.8 461.6,54 462.3,53.4 463.2,52.9 
				464.1,52.6 465.1,52.5 466.3,52.6 467.3,52.9 468.1,53.3 468.7,53.9 469.2,54.6 469.5,55.5 469.7,56.6 469.8,57.7 469.8,65.9 			
				"/>
			<path id="path2410" class="st0" d="M481.4,65.9l-6.3-7.5l5.8-5.8h2.9l-6,5.7l6.5,7.6L481.4,65.9L481.4,65.9z M472.9,65.9v-19h2.2
				v19H472.9z"/>
		</g>
	</g>
</g>
</svg>
