<?xml version="1.0" encoding="UTF-8"?>
<svg xmlns="http://www.w3.org/2000/svg" xmlns:xlink="http://www.w3.org/1999/xlink" width="1296pt" height="360pt" viewBox="0 0 1296 360" version="1.1">
<g id="surface1">
<rect x="0" y="0" width="1296" height="360" style="fill:rgb(59.599304%,10.198975%,11.399841%);fill-opacity:1;stroke:none;"/>
<path style=" stroke:none;fill-rule:evenodd;fill:rgb(100%,100%,100%);fill-opacity:1;" d="M 93.875 30 L 389.628906 30 L 389.628906 330 L 93.875 330 Z M 117.128906 53.585938 L 366.378906 53.585938 L 366.378906 306.414063 L 117.128906 306.414063 L 117.128906 53.585938 "/>
<path style=" stroke:none;fill-rule:evenodd;fill:rgb(100%,100%,100%);fill-opacity:1;" d="M 143.402344 80.472656 L 340.101563 80.472656 L 340.101563 130 L 143.402344 130 L 143.402344 80.472656 "/>
<path style=" stroke:none;fill-rule:evenodd;fill:rgb(100%,100%,100%);fill-opacity:1;" d="M 143.402344 155.234375 L 266.28125 155.234375 L 266.28125 204.765625 L 143.402344 204.765625 L 143.402344 155.234375 "/>
<path style=" stroke:none;fill-rule:evenodd;fill:rgb(100%,100%,100%);fill-opacity:1;" d="M 143.402344 230 L 192.695313 230 L 192.695313 279.527344 L 143.402344 279.527344 L 143.402344 230 "/>
<path style=" stroke:none;fill-rule:nonzero;fill:rgb(100%,100%,100%);fill-opacity:1;" d="M 464.253906 157.636719 L 484.59375 157.636719 L 484.59375 55.195313 L 464.253906 55.195313 L 464.253906 157.636719 "/>
<path style=" stroke:none;fill-rule:nonzero;fill:rgb(100%,100%,100%);fill-opacity:1;" d="M 503.835938 55.195313 L 503.835938 157.636719 L 544.789063 157.636719 C 575.300781 157.636719 587.117188 141.207031 587.117188 105.914063 C 587.117188 69.195313 575.984375 55.195313 544.925781 55.195313 Z M 539.980469 72.769531 C 563.617188 72.769531 566.503906 78.195313 566.503906 106.058594 C 566.503906 132.203125 561.96875 140.0625 542.179688 140.0625 L 524.175781 140.0625 L 524.175781 72.769531 L 539.980469 72.769531 "/>
<path style=" stroke:none;fill-rule:nonzero;fill:rgb(100%,100%,100%);fill-opacity:1;" d="M 603.0625 157.636719 L 623.398438 157.636719 L 623.398438 114.347656 L 666.140625 114.347656 L 666.140625 96.769531 L 623.398438 96.769531 L 623.398438 72.769531 L 672.324219 72.769531 L 672.324219 55.195313 L 603.0625 55.195313 L 603.0625 157.636719 "/>
<path style=" stroke:none;fill-rule:nonzero;fill:rgb(100%,100%,100%);fill-opacity:1;" d="M 746.949219 123.917969 C 745.300781 137.492188 738.84375 141.921875 725.238281 141.921875 C 706.269531 141.921875 700.773438 130.0625 700.773438 108.773438 C 700.773438 81.339844 708.195313 70.910156 724.964844 70.910156 C 741.730469 70.910156 744.613281 77.910156 746.949219 87.054688 L 767.289063 87.054688 C 763.992188 63.621094 749.148438 52.90625 724.964844 52.90625 C 694.316406 52.90625 680.160156 70.054688 680.160156 106.914063 C 680.160156 144.636719 695.140625 159.925781 724.824219 159.925781 C 755.195313 159.925781 765.917969 143.921875 767.289063 123.917969 L 746.949219 123.917969 "/>
<path style=" stroke:none;fill-rule:nonzero;fill:rgb(100%,100%,100%);fill-opacity:1;" d="M 821.714844 157.636719 L 842.054688 157.636719 L 842.054688 114.347656 L 884.796875 114.347656 L 884.796875 96.769531 L 842.054688 96.769531 L 842.054688 72.769531 L 890.980469 72.769531 L 890.980469 55.195313 L 821.714844 55.195313 L 821.714844 157.636719 "/>
<path style=" stroke:none;fill-rule:nonzero;fill:rgb(100%,100%,100%);fill-opacity:1;" d="M 904.3125 157.636719 L 924.648438 157.636719 L 924.648438 55.195313 L 904.3125 55.195313 L 904.3125 157.636719 "/>
<path style=" stroke:none;fill-rule:nonzero;fill:rgb(100%,100%,100%);fill-opacity:1;" d="M 943.890625 157.636719 L 964.230469 157.636719 L 964.230469 117.347656 L 982.507813 117.347656 L 1006.699219 157.636719 L 1031.429688 157.636719 L 1005.730469 116.058594 C 1017 113.34375 1024.980469 105.914063 1024.980469 85.914063 C 1024.980469 55.765625 1007.109375 55.195313 986.632813 55.195313 L 943.890625 55.195313 Z M 983.746094 72.769531 C 1000.921875 72.769531 1004.359375 74.910156 1004.359375 85.199219 C 1004.359375 98.058594 998.863281 99.773438 982.507813 99.773438 L 964.230469 99.773438 L 964.230469 72.769531 L 983.746094 72.769531 "/>
<path style=" stroke:none;fill-rule:nonzero;fill:rgb(100%,100%,100%);fill-opacity:1;" d="M 1036.929688 125.488281 C 1038.171875 146.777344 1046.960938 159.925781 1079.121094 159.925781 C 1093.828125 159.925781 1117.601563 157.210938 1117.601563 128.347656 C 1117.601563 107.914063 1105.78125 102.199219 1091.769531 98.34375 L 1069.78125 92.199219 C 1064.011719 90.628906 1059.75 88.484375 1059.75 81.054688 C 1059.75 72.910156 1064.96875 70.910156 1075.28125 70.910156 C 1092.871094 70.910156 1093.28125 76.625 1094.238281 85.199219 L 1114.578125 85.199219 C 1114.171875 66.910156 1105.101563 52.90625 1076.101563 52.90625 C 1045.589844 52.90625 1039.128906 68.339844 1039.128906 83.054688 C 1039.128906 101.773438 1049.710938 107.773438 1061.671875 111.058594 L 1085.578125 117.773438 C 1094.238281 120.203125 1096.988281 123.632813 1096.988281 129.917969 C 1096.988281 140.351563 1089.429688 141.921875 1079.121094 141.921875 C 1059.609375 141.921875 1058.101563 136.207031 1057.269531 125.488281 L 1036.929688 125.488281 "/>
<path style=" stroke:none;fill-rule:nonzero;fill:rgb(100%,100%,100%);fill-opacity:1;" d="M 1152.238281 157.636719 L 1172.578125 157.636719 L 1172.578125 73.195313 L 1202.121094 73.195313 L 1202.121094 55.195313 L 1122.550781 55.195313 L 1122.550781 73.195313 L 1152.238281 73.195313 L 1152.238281 157.636719 "/>
<path style=" stroke:none;fill-rule:nonzero;fill:rgb(100%,100%,100%);fill-opacity:1;" d="M 463.5625 202.792969 L 463.5625 305.234375 L 511.128906 305.234375 C 538.507813 305.234375 545.976563 292.519531 545.976563 275.660156 C 545.976563 264.945313 542.933594 255.230469 530.765625 250.371094 C 535.050781 248.515625 542.101563 245.226563 542.101563 229.367188 C 542.101563 209.9375 531.453125 202.792969 511.957031 202.792969 Z M 503.109375 220.367188 C 520.394531 220.367188 522.328125 222.367188 522.328125 230.9375 C 522.328125 241.511719 519.285156 243.085938 506.980469 243.085938 L 484.027344 243.085938 L 484.027344 220.367188 Z M 506.425781 260.65625 C 521.359375 260.65625 525.234375 262.230469 525.234375 274.519531 C 525.234375 286.234375 521.085938 287.664063 502.417969 287.664063 L 484.027344 287.664063 L 484.027344 260.65625 L 506.425781 260.65625 "/>
<path style=" stroke:none;fill-rule:nonzero;fill:rgb(100%,100%,100%);fill-opacity:1;" d="M 577.777344 252.800781 C 578.746094 246.371094 580.683594 244.085938 590.222656 244.085938 C 599.210938 244.085938 602.667969 246.085938 602.667969 253.085938 L 602.667969 257.65625 L 578.609375 261.515625 C 567.960938 263.230469 557.449219 269.515625 557.449219 286.234375 C 557.449219 299.09375 563.675781 307.09375 581.097656 307.09375 C 592.710938 307.09375 599.765625 303.523438 603.496094 299.519531 L 603.496094 305.234375 L 621.890625 305.234375 L 621.890625 250.085938 C 621.890625 233.652344 611.242188 228.082031 591.054688 228.082031 C 571.417969 228.082031 560.632813 233.367188 559.664063 252.800781 Z M 602.667969 276.519531 C 602.667969 285.804688 599.765625 292.378906 588.011719 292.378906 C 579.4375 292.378906 576.671875 289.234375 576.671875 283.519531 C 576.671875 275.519531 581.925781 273.945313 589.253906 272.800781 L 602.667969 270.515625 L 602.667969 276.519531 "/>
<path style=" stroke:none;fill-rule:nonzero;fill:rgb(100%,100%,100%);fill-opacity:1;" d="M 685.910156 305.234375 L 705.132813 305.234375 L 705.132813 259.230469 C 705.132813 236.367188 700.289063 228.082031 681.625 228.082031 C 668.210938 228.082031 662.542969 232.367188 657.289063 239.65625 L 657.289063 229.9375 L 639.035156 229.9375 L 639.035156 305.234375 L 658.253906 305.234375 L 658.253906 269.515625 C 658.253906 251.800781 659.777344 244.371094 673.464844 244.371094 C 685.773438 244.371094 685.910156 250.371094 685.910156 261.945313 L 685.910156 305.234375 "/>
<path style=" stroke:none;fill-rule:nonzero;fill:rgb(100%,100%,100%);fill-opacity:1;" d="M 723.800781 305.234375 L 743.019531 305.234375 L 743.019531 281.375 L 751.316406 272.515625 L 769.015625 305.234375 L 791.277344 305.234375 L 764.867188 258.515625 L 790.308594 229.9375 L 766.664063 229.9375 L 743.019531 257.800781 L 743.019531 202.792969 L 723.800781 202.792969 L 723.800781 305.234375 "/>
</g>
</svg>
