<?xml version="1.0" encoding="UTF-8" standalone="no"?>
<svg
   xmlns:dc="http://purl.org/dc/elements/1.1/"
   xmlns:cc="http://creativecommons.org/ns#"
   xmlns:rdf="http://www.w3.org/1999/02/22-rdf-syntax-ns#"
   xmlns:svg="http://www.w3.org/2000/svg"
   xmlns="http://www.w3.org/2000/svg"
   viewBox="0 0 612 792"
   id="svg2"
   height="792"
   width="612"
   version="1.1">
  <metadata
     id="metadata143">
    <rdf:RDF>
      <cc:Work
         rdf:about="">
        <dc:format>image/svg+xml</dc:format>
        <dc:type
           rdf:resource="http://purl.org/dc/dcmitype/StillImage" />
      </cc:Work>
    </rdf:RDF>
  </metadata>
  <defs
     id="defs141" />
  <g
     id="g4">
    <path
       id="path6"
       style="fill:none;stroke:#1b1918;stroke-width:0.5;stroke-linecap:butt;stroke-linejoin:miter;stroke-dasharray:none"
       d="m -954,-367.4324 0,1526.8648 Q -954,1224 -889.4324,1224 l 2390.8648,0 Q 1566,1224 1566,1159.4324 l 0,-1526.8648 Q 1566,-432 1501.4324,-432 l -2390.8648,0 Q -954,-432 -954,-367.4324 Z" />
    <defs
       id="defs8">
      <linearGradient
         id="grad1">
        <stop
           id="stop11"
           stop-opacity="1"
           stop-color="#007f21"
           offset="0.0000%" />
        <stop
           id="stop13"
           stop-opacity="1"
           stop-color="#003c66"
           offset="13.0000%" />
        <stop
           id="stop15"
           stop-opacity="1"
           stop-color="#00d49c"
           offset="36.0000%" />
        <stop
           id="stop17"
           stop-opacity="1"
           stop-color="#003c66"
           offset="86.0000%" />
        <stop
           id="stop19"
           stop-opacity="1"
           stop-color="#005507"
           offset="100.0000%" />
      </linearGradient>
    </defs>
    <path
       id="path21"
       style="fill:url(#grad1)"
       d="m -584.7742,-36.0001 c 357.178,-431.4467 947.7599,-293.5246 947.7599,-293.5246 l 0,0 -45.9677,-49.5091 c -79.2111,-11.2084 -151.7173,-16.2228 -218.1092,-16.2178 l 0,0 c -562.014,0.014 -683.683,359.2515 -683.683,359.2515 z" />
    <defs
       id="defs23">
      <linearGradient
         id="grad2">
        <stop
           id="stop26"
           stop-opacity="1"
           stop-color="#007f21"
           offset="0.0000%" />
        <stop
           id="stop28"
           stop-opacity="1"
           stop-color="#003c66"
           offset="13.0000%" />
        <stop
           id="stop30"
           stop-opacity="1"
           stop-color="#00d49c"
           offset="36.0000%" />
        <stop
           id="stop32"
           stop-opacity="1"
           stop-color="#003c66"
           offset="86.0000%" />
        <stop
           id="stop34"
           stop-opacity="1"
           stop-color="#005507"
           offset="100.0000%" />
      </linearGradient>
    </defs>
    <path
       id="path36"
       style="fill:url(#grad2)"
       d="m -30.4011,117.314 c -12.1402,6.1953 -24.2956,12.6586 -36.4674,19.4026 l 0,0 c -15.1114,8.3674 -30.2494,17.1584 -45.3874,26.4007 l 0,0 c 0,0 509.176,-258.7615 1011.3449,-64.2551 l 0,0 -35.3611,-67.191 c 0,0 -135.6159,-47.1814 -336.1343,-47.1852 l 0,0 C 370.2032,-15.5191 172.8242,13.5444 -30.4011,117.314 l 0,0 z" />
    <defs
       id="defs38">
      <linearGradient
         id="grad3">
        <stop
           id="stop41"
           stop-opacity="1"
           stop-color="#007f21"
           offset="0.0000%" />
        <stop
           id="stop43"
           stop-opacity="1"
           stop-color="#003c66"
           offset="13.0000%" />
        <stop
           id="stop45"
           stop-opacity="1"
           stop-color="#00d49c"
           offset="36.0000%" />
        <stop
           id="stop47"
           stop-opacity="1"
           stop-color="#003c66"
           offset="86.0000%" />
        <stop
           id="stop49"
           stop-opacity="1"
           stop-color="#005507"
           offset="100.0000%" />
      </linearGradient>
    </defs>
    <path
       id="path51"
       style="fill:url(#grad3)"
       d="m -371.4316,-180.742 -34.9691,12.8735 c 577.9902,-146.0176 1055.837,110.6464 1055.837,110.6464 l 0,-56.5793 C 451.5908,-215.5898 246.4019,-245.8531 72.3121,-245.8493 l 0,0 c -255.3402,0 -443.7437,65.1073 -443.7437,65.1073 l 0,0 z" />
    <path
       id="path53"
       style="fill:#000000;fill-rule:evenodd"
       d="m -169.6848,828.571 7.3559,-33.0411 2.2341,0 c -0.3072,3.1976 -0.4589,5.8464 -0.4589,7.9528 0,5.9942 1.918,10.8784 5.7489,14.6423 3.8272,3.7652 8.8315,5.6516 15.004,5.6516 5.7363,0 10.0983,-1.7625 13.0733,-5.29 2.975,-3.5237 4.4694,-7.5823 4.4694,-12.1807 0,-2.98 -0.6827,-5.6958 -2.0381,-8.1449 -2.0558,-3.64 -7.5557,-10.0275 -16.4895,-19.1838 -4.3317,-4.3759 -7.1094,-7.6404 -8.3409,-9.786 -2.0166,-3.5465 -3.0193,-7.2662 -3.0193,-11.1642 0,-6.218 2.3188,-11.5384 6.9615,-15.9636 4.6439,-4.4252 10.5939,-6.6327 17.869,-6.6327 2.4477,0 4.7716,0.2364 6.9627,0.7232 1.3554,0.2579 3.8259,1.1366 7.4217,2.6273 2.5426,1.0077 3.9384,1.5514 4.2014,1.6411 0.6157,0.129 1.2934,0.196 2.0381,0.196 1.2669,0 2.3643,-0.3249 3.2835,-0.9862 0.9179,-0.6549 1.9926,-2.0558 3.2203,-4.2014 l 2.4971,0 -6.8376,29.5591 -2.2303,0 c 0.1745,-2.6273 0.263,-4.7552 0.263,-6.3736 0,-5.2989 -1.7575,-9.6343 -5.2534,-13.0063 -3.5022,-3.372 -8.1272,-5.0586 -13.8584,-5.0586 -4.5542,0 -8.2612,1.3377 -11.1022,4.0105 -2.846,2.6665 -4.2684,5.7578 -4.2684,9.2588 0,3.0647 0.9052,5.9866 2.7259,8.7694 1.8143,2.7829 5.998,7.3143 12.5423,13.5955 6.5518,6.2838 10.7848,11.1907 12.7117,14.7144 1.9268,3.5237 2.8903,7.2839 2.8903,11.2666 0,4.5137 -1.1961,8.8807 -3.5769,13.1036 -2.3871,4.2242 -5.8172,7.5026 -10.2816,9.8176 -4.4695,2.3201 -9.3486,3.4833 -14.6474,3.4833 -2.6273,0 -5.0801,-0.2453 -7.3597,-0.7219 -2.2746,-0.4818 -5.9096,-1.6639 -10.9012,-3.5465 -1.7132,-0.6549 -3.1356,-0.9849 -4.2735,-0.9849 -2.578,0 -4.5933,1.7523 -6.0385,5.2533 l -2.4983,0 z" />
    <path
       id="path55"
       style="fill:#000000;fill-rule:evenodd"
       d="m -63.604,770.5048 c -2.8056,0 -5.7805,1.3149 -8.9338,3.9422 -4.4644,3.7197 -8.4395,9.2373 -11.9228,16.5528 -3.4782,7.3142 -5.223,13.9242 -5.223,19.835 0,2.975 0.7447,5.3343 2.2354,7.0601 1.4932,1.7309 3.2026,2.5957 5.1244,2.5957 4.7767,0 9.9643,-3.5237 15.5666,-10.575 7.4937,-9.3713 11.2362,-18.9828 11.2362,-28.8358 0,-3.7197 -0.7283,-6.414 -2.1734,-8.0779 -1.4401,-1.6639 -3.4112,-2.4971 -5.9096,-2.4971 z m 23.3853,-3.4175 -12.8091,44.5365 -1.4451,5.9765 c -0.1302,0.5753 -0.1972,1.0532 -0.1972,1.4451 0,0.7055 0.2187,1.3162 0.6562,1.8384 0.3527,0.397 0.7889,0.593 1.3161,0.593 0.5703,0 1.3112,-0.3477 2.2291,-1.0532 1.7094,-1.2656 3.9928,-3.8929 6.8388,-7.8807 l 2.229,1.5792 c -3.0192,4.5491 -6.1282,8.0235 -9.3257,10.4106 -3.1988,2.3807 -6.1549,3.5806 -8.8719,3.5806 -1.8826,0 -3.2962,-0.4729 -4.2368,-1.4135 -0.9369,-0.9407 -1.4098,-2.31 -1.4098,-4.1079 0,-2.1456 0.4767,-4.9739 1.4452,-8.4698 l 1.3831,-4.9297 c -5.7413,7.49 -11.0174,12.7256 -15.8346,15.7006 -3.4617,2.1456 -6.8464,3.2203 -10.1779,3.2203 -3.1988,0 -5.9601,-1.3288 -8.2789,-3.9776 -2.3151,-2.645 -3.4795,-6.2901 -3.4795,-10.9378 0,-6.9577 2.0874,-14.3086 6.2711,-22.0337 4.1837,-7.729 9.4927,-13.9154 15.9282,-18.5543 5.0359,-3.6805 9.7911,-5.5226 14.2555,-5.5226 2.6715,0 4.893,0.7004 6.6681,2.1051 1.7701,1.4009 3.1179,3.721 4.037,6.9628 l 2.3631,-7.4887 10.446,-1.5792 z" />
    <path
       id="path57"
       style="fill:#000000;fill-rule:evenodd"
       d="m 3.9245,733.1296 -22.4673,78.1667 c -1.0975,3.8942 -1.6411,6.285 -1.6411,7.1587 0,0.6562 0.2098,1.1999 0.6195,1.6424 0.4147,0.4412 0.9369,0.66 1.5488,0.66 0.8332,0 1.7258,-0.3755 2.6931,-1.1202 2.2745,-1.7929 4.6616,-4.5757 7.1587,-8.3409 l 1.9673,2.0343 c -4.1521,5.8653 -7.9932,9.9643 -11.4942,12.2831 -2.5779,1.6639 -5.0358,2.4983 -7.3546,2.4983 -1.6601,0 -3.0559,-0.5714 -4.1711,-1.7081 -1.1189,-1.1379 -1.6765,-2.449 -1.6765,-3.9435 0,-1.5741 0.7093,-4.8121 2.1051,-9.719 l 17.7969,-61.6152 c 1.4451,-5.0346 2.1721,-7.9249 2.1721,-8.6708 0,-1.052 -0.4147,-1.913 -1.2491,-2.5907 -0.8345,-0.6827 -2.1229,-1.0215 -3.8765,-1.0215 -1.0026,0 -2.5413,0.1555 -4.5984,0.4589 l 0,-2.4301 22.4673,-3.7424 z" />
    <path
       id="path59"
       style="fill:#000000;fill-rule:evenodd"
       d="m 17.7792,798.553 c 6.4861,-0.7447 11.7622,-2.0154 15.8346,-3.8082 5.3836,-2.4086 9.4244,-5.29 12.1188,-8.6405 2.6892,-3.3493 4.037,-6.5342 4.037,-9.5585 0,-1.837 -0.5765,-3.3226 -1.7397,-4.4643 -1.1645,-1.138 -2.8145,-1.7082 -4.9601,-1.7082 -4.4643,0 -9.2107,2.3732 -14.2238,7.1271 -5.0093,4.7552 -8.7025,11.7673 -11.0668,21.0526 z m -0.4589,3.2203 c -0.3073,2.186 -0.459,4.0054 -0.459,5.4505 0,3.8942 1.3819,7.2131 4.1382,9.9517 2.7613,2.7385 6.1106,4.1028 10.054,4.1028 3.1533,0 6.1827,-0.6423 9.0945,-1.9357 2.9079,-1.2935 7.2396,-4.1521 12.9746,-8.5723 l 1.3744,1.9041 c -10.3752,10.2943 -20.2725,15.4376 -29.688,15.4376 -6.3875,0 -11.2084,-2.0166 -14.4515,-6.0435 -3.238,-4.0282 -4.8576,-8.4749 -4.8576,-13.3325 0,-6.5291 2.0116,-13.2061 6.0448,-20.036 4.0232,-6.8325 9.0805,-12.1402 15.1684,-15.927 6.089,-3.7867 12.3463,-5.6832 18.7868,-5.6832 4.6439,0 8.0779,0.942 10.3133,2.8233 2.234,1.8826 3.3492,4.1129 3.3492,6.6998 0,3.6349 -1.4451,7.1195 -4.3304,10.4459 -3.8145,4.3355 -9.4168,7.8377 -16.8208,10.5093 -4.9018,1.7966 -11.8014,3.1975 -20.6909,4.2052 z" />
    <path
       id="path61"
       style="fill:#000000;fill-rule:evenodd"
       d="m 109.8082,767.0898 -4.0055,20.165 -2.43,0 c -0.2188,-5.8703 -1.4629,-10.1387 -3.7476,-12.8103 -2.2783,-2.6678 -5.1016,-4.0054 -8.4736,-4.0054 -2.712,0 -4.8715,0.7447 -6.4684,2.2341 -1.5968,1.4856 -2.3997,3.2835 -2.3997,5.3835 0,1.4452 0.3123,2.8284 0.9546,4.1395 0.6385,1.3162 2.0204,3.1533 4.1711,5.5176 5.6958,6.218 9.3713,10.9062 11.0351,14.0595 1.6589,3.1482 2.4971,6.1282 2.4971,8.9287 0,4.5542 -1.8914,8.595 -5.687,12.1238 -3.7867,3.5275 -8.5722,5.285 -14.349,5.285 -3.1533,0 -6.7832,-0.7397 -10.905,-2.2341 -1.4451,-0.5222 -2.5603,-0.7902 -3.3492,-0.7902 -1.9673,0 -3.4618,1.0089 -4.4657,3.0243 l -2.43,0 4.0092,-21.2802 2.4263,0 c 0.263,6.6505 1.6411,11.3652 4.1394,14.1215 2.4971,2.7562 5.9146,4.1344 10.245,4.1344 3.3315,0 5.9639,-0.9318 7.9173,-2.7866 1.9496,-1.8612 2.9219,-4.1534 2.9219,-6.8654 0,-1.7524 -0.3477,-3.372 -1.0481,-4.8614 -1.2315,-2.6273 -3.8007,-6.2623 -7.7214,-10.905 -3.9207,-4.6388 -6.4355,-8.1234 -7.5506,-10.4422 -1.1202,-2.3238 -1.6778,-4.6426 -1.6778,-6.9627 0,-4.2457 1.5475,-7.8415 4.63,-10.7709 3.0863,-2.9358 7.0652,-4.4025 11.9228,-4.4025 1.3996,0 2.6715,0.1062 3.8082,0.33 0.6119,0.129 2.052,0.6195 4.305,1.4755 2.2518,0.8572 3.7551,1.2808 4.4998,1.2808 1.8877,0 3.4618,-1.0254 4.7287,-3.0863 l 2.4971,0 z" />
    <path
       id="path63"
       style="fill:#000000;fill-rule:evenodd"
       d="m 186.7232,770.5048 c -2.8006,0 -5.7806,1.3149 -8.9301,3.9422 -4.4682,3.7197 -8.4433,9.2373 -11.9215,16.5528 -3.4845,7.3142 -5.223,13.9242 -5.223,19.835 0,2.975 0.7397,5.3343 2.2291,7.0601 1.4944,1.7309 3.2025,2.5957 5.1294,2.5957 4.7729,0 9.9605,-3.5237 15.5666,-10.575 7.4899,-9.3713 11.2311,-18.9828 11.2311,-28.8358 0,-3.7197 -0.727,-6.414 -2.1671,-8.0779 -1.4451,-1.6639 -3.4162,-2.4971 -5.9145,-2.4971 z m 23.3852,-3.4175 -12.8103,44.5365 -1.4401,5.9765 c -0.134,0.5753 -0.201,1.0532 -0.201,1.4451 0,0.7055 0.2187,1.3162 0.6562,1.8384 0.3515,0.397 0.7889,0.593 1.3149,0.593 0.5715,0 1.3124,-0.3477 2.2303,-1.0532 1.7132,-1.2656 3.9928,-3.8929 6.8376,-7.8807 l 2.2303,1.5792 c -3.0193,4.5491 -6.1283,8.0235 -9.3258,10.4106 -3.1988,2.3807 -6.1561,3.5806 -8.8719,3.5806 -1.8776,0 -3.2962,-0.4729 -4.233,-1.4135 -0.9407,-0.9407 -1.4136,-2.31 -1.4136,-4.1079 0,-2.1456 0.4817,-4.9739 1.4452,-8.4698 l 1.3819,-4.9297 c -5.7401,7.49 -11.0162,12.7256 -15.8296,15.7006 -3.4655,2.1456 -6.8502,3.2203 -10.183,3.2203 -3.1975,0 -5.9588,-1.3288 -8.2776,-3.9776 -2.315,-2.645 -3.4795,-6.2901 -3.4795,-10.9378 0,-6.9577 2.0874,-14.3086 6.2711,-22.0337 4.1888,-7.729 9.4915,-13.9154 15.9282,-18.5543 5.0397,-3.6805 9.7898,-5.5226 14.2555,-5.5226 2.6715,0 4.893,0.7004 6.6681,2.1051 1.7701,1.4009 3.1179,3.721 4.0358,6.9628 l 2.3643,-7.4887 10.446,-1.5792 z" />
    <path
       id="path65"
       style="fill:#000000;fill-rule:evenodd"
       d="m 243.9359,767.0898 -8.7328,29.8878 c 8.1891,-12.2211 14.4603,-20.2535 18.8172,-24.1072 4.3544,-3.8537 8.5507,-5.7806 12.5789,-5.7806 2.1848,0 3.9966,0.722 5.419,2.1671 1.4224,1.4452 2.1317,3.3278 2.1317,5.6466 0,2.6323 -0.6334,6.1333 -1.9003,10.513 l -8.0147,27.6549 c -0.9192,3.1975 -1.3832,5.1421 -1.3832,5.8426 0,0.6106 0.1796,1.1328 0.5273,1.5437 0.3477,0.4147 0.7219,0.6233 1.1151,0.6233 0.5298,0 1.1632,-0.2806 1.9092,-0.8509 2.3188,-1.8421 4.8563,-4.6439 7.6176,-8.4078 l 2.0344,1.2491 c -4.0725,5.8249 -7.9262,9.982 -11.5612,12.4791 -2.5388,1.7081 -4.8133,2.5603 -6.8287,2.5603 -1.6234,0 -2.908,-0.4906 -3.8765,-1.4755 -0.9634,-0.9862 -1.4451,-2.3112 -1.4451,-3.9751 0,-2.1051 0.7447,-5.7136 2.2341,-10.8379 l 7.6189,-26.4058 c 0.9672,-3.2823 1.4451,-5.8476 1.4451,-7.6847 0,-0.8787 -0.2857,-1.588 -0.8521,-2.1367 -0.5702,-0.5488 -1.2707,-0.8206 -2.1014,-0.8206 -1.2302,0 -2.6981,0.526 -4.4011,1.5792 -3.2393,1.9673 -6.6151,5.2179 -10.116,9.7506 -3.5023,4.5314 -7.2043,10.3246 -11.1022,17.3771 -2.0559,3.7247 -3.7652,7.7959 -5.1244,12.2161 l -3.2835,10.8392 -9.853,0 11.9581,-41.1202 c 1.3959,-4.9512 2.0963,-7.9262 2.0963,-8.9339 0,-0.9634 -0.3793,-1.8067 -1.1455,-2.5287 -0.7674,-0.7232 -1.722,-1.0835 -2.8599,-1.0835 -0.5209,0 -1.4401,0.0885 -2.7563,0.263 l -2.4971,0.3919 -0.397,-2.363 22.7291,-4.0725 z" />
    <path
       id="path67"
       style="fill:#000000;fill-rule:evenodd"
       d="m 329.92,779.7674 c 0,-2.8018 -0.8079,-5.0586 -2.4313,-6.7668 -1.6196,-1.7081 -3.6754,-2.5603 -6.1738,-2.5603 -5.5163,0 -11.2665,4.5542 -17.2431,13.6625 -5.9765,9.1071 -8.9654,17.8234 -8.9654,26.1416 0,3.2822 0.7181,5.7944 2.1683,7.5241 1.4452,1.7271 3.176,2.5919 5.1914,2.5919 4.5491,0 10.2627,-4.9247 17.1369,-14.7777 6.878,-9.8517 10.317,-18.4606 10.317,-25.8153 z m 24.3702,-46.6378 -22.6001,77.5067 c -1.2264,4.2065 -1.8371,6.9627 -1.8371,8.2789 0,0.4375 0.1821,0.856 0.5576,1.2492 0.3742,0.3919 0.7573,0.5879 1.1505,0.5879 0.5703,0 1.2492,-0.2807 2.0331,-0.8509 1.4945,-1.0532 3.9928,-3.6805 7.4938,-7.8819 l 2.2303,1.3781 c -3.1533,4.3797 -6.3382,7.9262 -9.5585,10.642 -3.2165,2.712 -6.2218,4.0724 -9.0274,4.0724 -1.4944,0 -2.712,-0.5259 -3.6805,-1.5791 -0.9634,-1.0482 -1.4489,-2.5376 -1.4489,-4.4644 0,-2.4971 0.66,-5.8476 1.9762,-10.049 l 2.5603,-8.1449 c -6.3521,9.8088 -12.1327,16.597 -17.3418,20.3622 -3.5907,2.5818 -7.0297,3.8752 -10.3132,3.8752 -3.3265,0 -6.2256,-1.4805 -8.7012,-4.4327 -2.4756,-2.9573 -3.7109,-6.9767 -3.7109,-12.0518 0,-6.5303 2.0774,-13.493 6.2396,-20.8932 4.1571,-7.3989 9.652,-13.421 16.4857,-18.0586 5.3836,-3.7248 10.3335,-5.5846 14.8485,-5.5846 2.363,0 4.3974,0.4817 6.1055,1.4451 1.7043,0.9584 3.3947,2.5603 5.0586,4.7944 l 6.4355,-22.8593 c 0.4779,-1.6183 0.8749,-2.9118 1.1822,-3.8752 0.5259,-1.7536 0.7889,-3.1937 0.7889,-4.3354 0,-0.9192 -0.33,-1.6867 -0.9811,-2.2973 -0.9268,-0.7447 -2.1051,-1.1202 -3.5503,-1.1202 -1.0039,0 -2.6753,0.1567 -4.9954,0.4602 l 0,-2.4314 22.6001,-3.7424 z" />
    <path
       id="path69"
       style="fill:#000000;fill-rule:evenodd"
       d="m 425.4246,742.3922 -19.309,66.6687 c -1.4451,4.9954 -2.1683,8.0817 -2.1683,9.2639 0,0.7042 0.2275,1.3781 0.6916,2.0343 0.4551,0.66 1.0797,1.1012 1.8687,1.3149 1.1379,0.3932 2.975,0.593 5.5176,0.593 6.878,0 13.2566,-0.708 19.1484,-2.1355 5.8918,-1.4274 10.7178,-3.5326 14.4831,-6.3381 5.338,-4.0725 9.6077,-9.6798 12.809,-16.8158 3.1988,-7.1359 4.7957,-15.2631 4.7957,-24.3714 0,-10.2893 -2.4491,-17.9436 -7.3547,-22.9567 -4.912,-5.0131 -12.0707,-7.5203 -21.4812,-7.5203 -2.3201,0 -5.3216,0.0885 -9.0009,0.263 z m -23.3195,-2.4984 0.7902,-2.4262 28.4439,0 c 12.0378,0 20.9628,1.3781 26.7662,4.1356 5.7982,2.7601 10.4283,7.1044 13.8888,13.0417 3.4655,5.9323 5.1926,12.2881 5.1926,19.0764 0,5.8248 -1.0001,11.4903 -2.9889,16.9852 -1.9939,5.491 -4.2507,9.8935 -6.7667,13.2022 -2.5148,3.3012 -6.3862,6.9489 -11.5966,10.9328 -5.2053,3.9877 -10.8518,6.9311 -16.9396,8.8352 -6.0929,1.9054 -13.6853,2.86 -22.7974,2.86 l -37.7027,0 0.8522,-2.4314 c 3.4655,-0.0847 5.7805,-0.397 6.9665,-0.9191 1.7524,-0.7447 3.042,-1.7524 3.8714,-3.0243 1.2669,-1.8371 2.6981,-5.5353 4.2735,-11.101 l 15.7626,-53.8584 c 1.2314,-4.2507 1.837,-7.5785 1.837,-9.9871 0,-1.7081 -0.5664,-3.0192 -1.703,-3.9384 -1.1379,-0.923 -3.372,-1.3832 -6.6998,-1.3832 l -1.4502,0 z" />
    <path
       id="path71"
       style="fill:#000000;fill-rule:evenodd"
       d="m 509.6336,741.0115 c 1.8384,0 3.3999,0.6372 4.6655,1.9041 1.2668,1.2719 1.9053,2.8283 1.9053,4.6654 0,1.7929 -0.6473,3.3417 -1.9407,4.63 -1.2935,1.2897 -2.836,1.9408 -4.6301,1.9408 -1.7928,0 -3.3353,-0.6511 -4.6287,-1.9408 -1.2934,-1.2883 -1.9408,-2.8371 -1.9408,-4.63 0,-1.8371 0.6372,-3.3935 1.9041,-4.6654 1.2669,-1.2669 2.8283,-1.9041 4.6654,-1.9041 z m 0.8522,26.0796 -13.0063,46.0435 c -0.8699,3.1091 -1.3111,4.9727 -1.3111,5.5846 0,0.7043 0.2099,1.2669 0.6246,1.7082 0.4147,0.4374 0.9052,0.6549 1.4767,0.6549 0.66,0 1.4452,-0.3477 2.3631,-1.0519 2.4983,-1.9711 5.0144,-4.7729 7.5557,-8.4029 l 2.2973,1.5071 c -2.975,4.5491 -6.481,8.3902 -10.5079,11.4942 -2.975,2.32 -5.8261,3.4832 -8.5369,3.4832 -1.7941,0 -3.2696,-0.5398 -4.3986,-1.6095 -1.1367,-1.0709 -1.7119,-2.4174 -1.7119,-4.0408 0,-1.6247 0.5474,-4.3139 1.6411,-8.0779 l 8.5406,-29.425 c 1.3971,-4.8222 2.1013,-7.8415 2.1013,-9.0679 0,-0.9634 -0.3388,-1.7486 -1.0165,-2.3643 -0.6789,-0.6157 -1.6108,-0.9179 -2.7929,-0.9179 -0.9672,0 -2.9573,0.2402 -5.9804,0.7219 l 0,-2.5641 22.6621,-3.6754 z" />
    <path
       id="path73"
       style="fill:#000000;fill-rule:evenodd"
       d="m 565.7274,767.0898 -4.0003,20.165 -2.4314,0 c -0.2174,-5.8703 -1.4666,-10.1387 -3.7462,-12.8103 -2.2796,-2.6678 -5.1067,-4.0054 -8.4749,-4.0054 -2.712,0 -4.8702,0.7447 -6.4722,2.2341 -1.5918,1.4856 -2.3946,3.2835 -2.3946,5.3835 0,1.4452 0.3123,2.8284 0.9546,4.1395 0.6372,1.3162 2.0204,3.1533 4.1698,5.5176 5.6958,6.218 9.3713,10.9062 11.0351,14.0595 1.6601,3.1482 2.4984,6.1282 2.4984,8.9287 0,4.5542 -1.8965,8.595 -5.687,12.1238 -3.7867,3.5275 -8.5735,5.285 -14.3491,5.285 -3.1583,0 -6.7882,-0.7397 -10.9049,-2.2341 -1.4452,-0.5222 -2.5603,-0.7902 -3.3505,-0.7902 -1.9711,0 -3.4605,1.0089 -4.4695,3.0243 l -2.43,0 4.0092,-21.2802 2.4313,0 c 0.263,6.6505 1.6411,11.3652 4.1344,14.1215 2.4984,2.7562 5.9184,4.1344 10.25,4.1344 3.3278,0 5.9639,-0.9318 7.9174,-2.7866 1.9483,-1.8612 2.9206,-4.1534 2.9206,-6.8654 0,-1.7524 -0.3477,-3.372 -1.0482,-4.8614 -1.2302,-2.6273 -3.7993,-6.2623 -7.72,-10.905 -3.9208,-4.6388 -6.4368,-8.1234 -7.5519,-10.4422 -1.119,-2.3238 -1.6766,-4.6426 -1.6766,-6.9627 0,-4.2457 1.5425,-7.8415 4.6301,-10.7709 3.0862,-2.9358 7.06,-4.4025 11.9214,-4.4025 1.3971,0 2.6729,0.1062 3.8095,0.33 0.6107,0.129 2.047,0.6195 4.3038,1.4755 2.2531,0.8572 3.7564,1.2808 4.5011,1.2808 1.8826,0 3.4567,-1.0254 4.7236,-3.0863 l 2.497,0 z" />
    <path
       id="path75"
       style="fill:#000000;fill-rule:evenodd"
       d="m 604.2203,750.7988 -5.1205,17.8677 10.3119,0 -1.1189,4.1394 -10.2462,0 -11.2969,38.7521 c -1.2277,4.161 -1.8384,6.8502 -1.8384,8.0817 0,0.7409 0.1783,1.3111 0.5222,1.7043 0.3477,0.3958 0.7712,0.593 1.2492,0.593 1.0961,0 2.5463,-0.7675 4.3354,-2.2973 1.0519,-0.8749 3.3985,-3.568 7.0285,-8.0817 l 2.1683,1.6411 c -4.0282,5.8691 -7.8364,10.0048 -11.4271,12.4171 -2.4541,1.6588 -4.9246,2.4933 -7.423,2.4933 -1.9268,0 -3.5009,-0.6018 -4.7311,-1.8067 -1.2277,-1.1999 -1.8384,-2.7424 -1.8384,-4.6288 0,-2.3643 0.7042,-5.9778 2.1013,-10.8392 l 10.967,-38.0289 -9.9188,0 0.66,-2.5641 c 4.8171,-1.3111 8.8175,-3.2746 12.0201,-5.8792 3.1988,-2.6007 6.7667,-7.1271 10.709,-13.5638 l 2.8864,0 z" />
    <path
       id="path77"
       style="fill:#000000;fill-rule:evenodd"
       d="m 613.6814,770.7678 22.6621,-3.6792 -9.4598,31.9259 c 7.667,-13.0999 14.6246,-22.2474 20.8869,-27.4578 3.5465,-2.9787 6.4368,-4.4681 8.6709,-4.4681 1.4451,0 2.583,0.4273 3.4175,1.2795 0.8332,0.8559 1.2479,2.0963 1.2479,3.7108 0,2.8903 -0.7447,5.6516 -2.2341,8.2789 -1.0532,1.9711 -2.5603,2.9573 -4.5365,2.9573 -0.9988,0 -1.8687,-0.33 -2.5906,-0.9862 -0.7232,-0.6561 -1.1733,-1.6638 -1.3478,-3.0192 -0.0847,-0.8345 -0.2807,-1.3832 -0.5879,-1.6462 -0.3528,-0.3527 -0.7675,-0.5222 -1.2542,-0.5222 -0.7397,0 -1.4401,0.1695 -2.0963,0.5222 -1.1366,0.6158 -2.8726,2.3239 -5.1876,5.1244 -3.635,4.2912 -7.5772,9.853 -11.8279,16.6868 -1.8384,2.8852 -3.4125,6.151 -4.7287,9.786 -1.8371,4.9904 -2.8903,7.9932 -3.1482,8.9958 l -2.1051,8.2789 -10.049,0 12.1541,-40.7902 c 1.3959,-4.7324 2.0963,-8.1044 2.0963,-10.116 0,-0.789 -0.3262,-1.4451 -0.9811,-1.9711 -0.8787,-0.7005 -2.0394,-1.0482 -3.4846,-1.0482 -0.9179,0 -2.6083,0.196 -5.0573,0.5892 l -0.459,-2.4313 z" />
    <path
       id="path79"
       style="fill:#000000;fill-rule:evenodd"
       d="m 689.0881,741.0115 c 1.837,0 3.3947,0.6372 4.6654,1.9041 1.2669,1.2719 1.9041,2.8283 1.9041,4.6654 0,1.7929 -0.6461,3.3417 -1.9395,4.63 -1.2934,1.2897 -2.8372,1.9408 -4.63,1.9408 -1.7929,0 -3.3366,-0.6511 -4.6301,-1.9408 -1.2934,-1.2883 -1.9407,-2.8371 -1.9407,-4.63 0,-1.8371 0.6385,-3.3935 1.9053,-4.6654 1.2669,-1.2669 2.8271,-1.9041 4.6655,-1.9041 z m 0.8521,26.0796 -13.0063,46.0435 c -0.8749,3.1091 -1.3161,4.9727 -1.3161,5.5846 0,0.7043 0.2136,1.2669 0.6283,1.7082 0.416,0.4374 0.9066,0.6549 1.4768,0.6549 0.66,0 1.4451,-0.3477 2.3643,-1.0519 2.4971,-1.9711 5.0093,-4.7729 7.5557,-8.4029 l 2.2973,1.5071 c -2.975,4.5491 -6.4861,8.3902 -10.5092,11.4942 -2.975,2.32 -5.8299,3.4832 -8.5368,3.4832 -1.7929,0 -3.2696,-0.5398 -4.4025,-1.6095 -1.1366,-1.0709 -1.7081,-2.4174 -1.7081,-4.0408 0,-1.6247 0.5437,-4.3139 1.6411,-8.0779 l 8.5419,-29.425 c 1.3959,-4.8222 2.1014,-7.8415 2.1014,-9.0679 0,-0.9634 -0.3402,-1.7486 -1.0216,-2.3643 -0.6739,-0.6157 -1.6057,-0.9179 -2.7879,-0.9179 -0.9685,0 -2.9573,0.2402 -5.9816,0.7219 l 0,-2.5641 22.6633,-3.6754 z" />
    <path
       id="path81"
       style="fill:#000000;fill-rule:evenodd"
       d="m 709.7778,821.4123 c 4.3796,2.4086 8.2334,3.6135 11.5611,3.6135 3.8537,0 7.8503,-1.4148 11.9847,-4.2381 4.1395,-2.8233 7.7352,-7.586 10.7722,-14.2858 3.0458,-6.6997 4.5668,-13.4665 4.5668,-20.299 0,-4.0282 -0.9988,-7.1815 -2.9876,-9.456 -1.9901,-2.2746 -4.3494,-3.4163 -7.0614,-3.4163 -4.0724,0 -8.0589,1.6323 -11.9531,4.893 -3.8979,3.2608 -6.682,7.8048 -8.3459,13.6309 l -8.5368,29.5578 z m 25.4196,-88.2827 -12.9393,45.3886 c 4.2014,-4.3759 7.868,-7.3774 11.0035,-8.997 3.1356,-1.6197 6.4001,-2.4314 9.8215,-2.4314 4.8133,0 8.7555,1.5969 11.8203,4.7957 3.0686,3.1937 4.5984,7.5291 4.5984,13.0063 0,7.0512 -2.0166,14.0632 -6.0435,21.0525 -4.0232,6.9805 -9.0818,12.426 -15.1696,16.3202 -6.0929,3.8941 -12.0884,5.8475 -18.0017,5.8475 -6.6151,0 -13.3945,-2.4755 -20.3623,-7.4216 l 19.9691,-68.7739 c 1.5298,-5.2989 2.2973,-8.4079 2.2973,-9.3271 0,-1.1417 -0.3477,-1.9939 -1.0482,-2.5641 -1.0077,-0.7851 -2.4983,-1.1821 -4.4694,-1.1821 -0.9192,0 -2.3188,0.1555 -4.2014,0.4589 l 0,-2.4933 22.7253,-3.6792 z" />
    <path
       id="path83"
       style="fill:#000000;fill-rule:evenodd"
       d="m 826.9621,768.6665 -11.4322,39.1478 c -1.7044,5.8248 -2.5603,9.5053 -2.5603,11.0352 0,0.7889 0.1479,1.3693 0.4286,1.7435 0.2807,0.3705 0.6688,0.5576 1.1505,0.5576 0.7409,0 1.5615,-0.3439 2.4617,-1.0216 0.9015,-0.6726 3.1672,-3.3809 6.7984,-8.1082 l 1.966,1.5071 c -3.4567,5.4733 -7.0069,9.5053 -10.6331,12.0871 -2.4123,1.6638 -4.7324,2.4983 -6.9665,2.4983 -1.7081,0 -3.042,-0.4817 -4.0054,-1.4502 -0.9685,-0.9634 -1.4502,-2.2113 -1.4502,-3.7412 0,-1.4906 0.2857,-3.4618 0.8572,-5.9108 0.7042,-3.238 2.693,-10.2943 5.9803,-21.1499 -7.4432,12.2161 -13.6789,20.6467 -18.6933,25.2894 -5.008,4.6439 -9.6646,6.9627 -13.9558,6.9627 -2.0166,0 -3.7247,-0.7042 -5.1206,-2.1051 -1.4047,-1.4009 -2.1051,-3.171 -2.1051,-5.3166 0,-3.2873 0.9685,-8.3282 2.8953,-15.1114 l 5.7136,-20.2952 c 1.3958,-4.8614 2.1001,-7.8857 2.1001,-9.0679 0,-0.5209 -0.1821,-0.9723 -0.5576,-1.3427 -0.3742,-0.3692 -0.7763,-0.5576 -1.2176,-0.5576 -0.9191,0 -1.8371,0.3262 -2.7562,0.9824 -0.923,0.66 -3.0066,3.0901 -6.2396,7.2915 l -2.0393,-1.4452 c 3.2872,-5.0801 6.7667,-8.8264 10.4422,-11.2299 2.8055,-1.8826 5.3886,-2.8283 7.7567,-2.8283 1.6184,0 2.9396,0.5171 3.97,1.5476 1.0343,1.0253 1.5425,2.3554 1.5425,3.9738 0,2.3643 -0.8698,6.5885 -2.6273,12.6763 l -6.1725,21.2131 c -1.7081,5.7806 -2.5603,9.4434 -2.5603,10.9732 0,0.8332 0.2769,1.4983 0.8206,2.0028 0.5436,0.5032 1.2795,0.7573 2.1987,0.7573 1.4451,0 3.3315,-0.727 5.6465,-2.1721 2.3201,-1.4452 5.4203,-4.6478 9.2955,-9.6204 3.8802,-4.9689 7.074,-9.6343 9.5938,-13.9925 2.5122,-4.3569 5.2015,-11.2843 8.0425,-20.7896 l 1.4502,-4.9903 9.982,0 z" />
    <path
       id="path85"
       style="fill:#000000;fill-rule:evenodd"
       d="m 865.8456,750.7988 -5.1206,17.8677 10.3133,0 -1.1202,4.1394 -10.245,0 -11.2981,38.7521 c -1.2265,4.161 -1.8384,6.8502 -1.8384,8.0817 0,0.7409 0.1745,1.3111 0.5222,1.7043 0.3477,0.3958 0.7725,0.593 1.2491,0.593 1.0975,0 2.5464,-0.7675 4.3355,-2.2973 1.0532,-0.8749 3.3985,-3.568 7.0297,-8.0817 l 2.1671,1.6411 c -4.0269,5.8691 -7.8364,10.0048 -11.4309,12.4171 -2.449,1.6588 -4.9246,2.4933 -7.423,2.4933 -1.9218,0 -3.4959,-0.6018 -4.7273,-1.8067 -1.2265,-1.1999 -1.8422,-2.7424 -1.8422,-4.6288 0,-2.3643 0.7093,-5.9778 2.1051,-10.8392 l 10.9682,-38.0289 -9.92,0 0.66,-2.5641 c 4.8133,-1.3111 8.8187,-3.2746 12.0213,-5.8792 3.1975,-2.6007 6.7655,-7.1271 10.709,-13.5638 l 2.8852,0 z" />
    <path
       id="path87"
       style="fill:#000000;fill-rule:evenodd"
       d="m 898.362,741.0115 c 1.8371,0 3.3985,0.6372 4.6654,1.9041 1.2669,1.2719 1.9041,2.8283 1.9041,4.6654 0,1.7929 -0.6461,3.3417 -1.9395,4.63 -1.2947,1.2897 -2.8372,1.9408 -4.63,1.9408 -1.7928,0 -3.3366,-0.6511 -4.63,-1.9408 -1.2935,-1.2883 -1.9408,-2.8371 -1.9408,-4.63 0,-1.8371 0.6385,-3.3935 1.9054,-4.6654 1.2668,-1.2669 2.827,-1.9041 4.6654,-1.9041 z m 0.8522,26.0796 -13.0063,46.0435 c -0.8699,3.1091 -1.3124,4.9727 -1.3124,5.5846 0,0.7043 0.2099,1.2669 0.6246,1.7082 0.4147,0.4374 0.9052,0.6549 1.4767,0.6549 0.66,0 1.4452,-0.3477 2.3643,-1.0519 2.4971,-1.9711 5.0132,-4.7729 7.5557,-8.4029 l 2.2974,1.5071 c -2.9763,4.5491 -6.4811,8.3902 -10.5093,11.4942 -2.975,2.32 -5.8248,3.4832 -8.5368,3.4832 -1.7928,0 -3.2696,-0.5398 -4.4024,-1.6095 -1.1329,-1.0709 -1.7082,-2.4174 -1.7082,-4.0408 0,-1.6247 0.5437,-4.3139 1.6412,-8.0779 l 8.5419,-29.425 c 1.3958,-4.8222 2.1,-7.8415 2.1,-9.0679 0,-0.9634 -0.3388,-1.7486 -1.0165,-2.3643 -0.6777,-0.6157 -1.6108,-0.9179 -2.7917,-0.9179 -0.9685,0 -2.9573,0.2402 -5.9816,0.7219 l 0,-2.5641 22.6634,-3.6754 z" />
    <path
       id="path89"
       style="fill:#000000;fill-rule:evenodd"
       d="m 956.9516,783.1166 c 0,-4.0724 -1.0001,-7.1903 -2.9889,-9.3624 -1.9888,-2.1633 -4.563,-3.2519 -7.7163,-3.2519 -6.4405,0 -12.364,4.6123 -17.7703,13.8281 -5.4051,9.2196 -8.1082,18.3848 -8.1082,27.4931 0,4.1572 1.0481,7.3686 3.1532,9.6204 2.1001,2.2531 4.7451,3.3859 7.9439,3.3859 6.1776,0 11.9708,-4.5858 17.3771,-13.7649 5.4063,-9.1753 8.1095,-18.4885 8.1095,-27.9483 z m 10.905,4.5314 c 0,6.5708 -1.7398,13.0733 -5.223,19.5101 -3.4795,6.4355 -8.327,11.5434 -14.545,15.3036 -6.2269,3.7639 -12.2667,5.6503 -18.1358,5.6503 -5.9904,0 -10.8872,-1.918 -14.679,-5.7489 -3.7867,-3.831 -5.6781,-8.7872 -5.6781,-14.875 0,-6.4368 1.851,-12.9001 5.5492,-19.3798 3.6969,-6.4773 8.6481,-11.6017 14.8433,-15.3707 6.1953,-3.7652 12.1858,-5.6465 17.9613,-5.6465 5.7806,0 10.5497,1.9041 14.2909,5.7136 3.7424,3.8094 5.6162,8.7593 5.6162,14.8433 z" />
    <path
       id="path91"
       style="fill:#000000;fill-rule:evenodd"
       d="m 1002.6045,767.0898 -8.7379,29.8878 c 8.193,-12.2211 14.4641,-20.2535 18.8223,-24.1072 4.3531,-3.8537 8.5507,-5.7806 12.5777,-5.7806 2.186,0 3.9965,0.722 5.4202,2.1671 1.4224,1.4452 2.1317,3.3278 2.1317,5.6466 0,2.6323 -0.6335,6.1333 -1.9003,10.513 l -8.0147,27.6549 c -0.9192,3.1975 -1.3832,5.1421 -1.3832,5.8426 0,0.6106 0.1783,1.1328 0.526,1.5437 0.3489,0.4147 0.7232,0.6233 1.1151,0.6233 0.531,0 1.1645,-0.2806 1.9054,-0.8509 2.3238,-1.8421 4.8614,-4.6439 7.6227,-8.4078 l 2.0331,1.2491 c -4.0725,5.8249 -7.9262,9.982 -11.5612,12.4791 -2.5426,1.7081 -4.8121,2.5603 -6.8287,2.5603 -1.6234,0 -2.908,-0.4906 -3.8752,-1.4755 -0.9685,-0.9862 -1.4451,-2.3112 -1.4451,-3.9751 0,-2.1051 0.7447,-5.7136 2.2341,-10.8379 l 7.6176,-26.4058 c 0.9685,-3.2823 1.4452,-5.8476 1.4452,-7.6847 0,-0.8787 -0.2845,-1.588 -0.8509,-2.1367 -0.5715,-0.5488 -1.272,-0.8206 -2.1052,-0.8206 -1.2314,0 -2.6943,0.526 -4.3986,1.5792 -3.238,1.9673 -6.6151,5.2179 -10.116,9.7506 -3.501,4.5314 -7.208,10.3246 -11.101,17.3771 -2.057,3.7247 -3.7652,7.7959 -5.1256,12.2161 l -3.2822,10.8392 -9.853,0 11.9581,-41.1202 c 1.3958,-4.9512 2.0963,-7.9262 2.0963,-8.9339 0,-0.9634 -0.3793,-1.8067 -1.1468,-2.5287 -0.7674,-0.7232 -1.722,-1.0835 -2.8587,-1.0835 -0.5221,0 -1.4451,0.0885 -2.7562,0.263 l -2.4984,0.3919 -0.397,-2.363 22.7304,-4.0725 z" />
    <path
       id="path93"
       style="fill:#000000;fill-rule:evenodd"
       d="m 1088.2561,819.6372 c 2.712,3.2392 6.3735,4.8626 10.9719,4.8626 2.2797,0 4.5947,-0.6385 6.9628,-1.9053 2.3643,-1.2707 4.6743,-3.1533 6.9273,-5.6504 2.2569,-2.4933 4.2823,-5.3709 6.079,-8.6355 1.7928,-3.2607 3.3985,-7.1056 4.831,-11.5295 1.4224,-4.4252 2.1317,-8.8011 2.1317,-13.1365 0,-3.506 -0.8029,-6.1864 -2.3997,-8.0463 -1.5918,-1.8636 -3.4656,-2.7916 -5.615,-2.7916 -4.7286,0 -9.4067,2.7158 -14.024,8.1448 -4.62,5.4279 -7.997,11.7787 -10.1515,19.0499 l -5.7135,19.6378 z m 15.3074,-52.5461 -4.5314,15.1064 c 4.7729,-5.6061 9.0274,-9.5218 12.7749,-11.7572 3.7412,-2.2341 7.5683,-3.3492 11.4625,-3.3492 3.8942,0 7.2257,1.5425 9.982,4.63 2.7613,3.0863 4.1395,7.1044 4.1395,12.0517 0,9.6343 -3.9208,19.433 -11.7572,29.3935 -7.8376,9.968 -16.9674,14.9457 -27.3907,14.9457 -2.1898,0 -4.1255,-0.2452 -5.8122,-0.7219 -1.6904,-0.4817 -3.5818,-1.3339 -5.6819,-2.5603 l -4.7957,16.9447 c -0.9672,3.3278 -1.4451,5.4999 -1.4451,6.5025 0,0.9635 0.2453,1.784 0.7535,2.463 0.5096,0.6777 1.3251,1.2036 2.463,1.5791 1.1366,0.3743 3.3985,0.5564 6.7655,0.5564 l -0.593,2.4313 -30.9321,0 0.6562,-2.4313 c 4.0724,-0.1783 6.8148,-0.8737 8.2422,-2.1052 1.4224,-1.2264 2.9219,-4.6161 4.5011,-10.1779 l 16.6147,-57.5428 c 1.0077,-3.635 1.5109,-5.888 1.5109,-6.7667 0,-1.1771 -0.3389,-2.1001 -1.0203,-2.7563 -0.6739,-0.6549 -1.7183,-0.9849 -3.1179,-0.9849 -1.2669,0 -3.0382,0.1555 -5.3166,0.4589 l 0,-2.5603 22.5281,-3.3492 z" />
    <path
       id="path95"
       style="fill:#000000;fill-rule:evenodd"
       d="m 1143.9579,771.1623 18.9829,-4.0725 c 1.3655,3.238 2.4528,6.5481 3.2835,9.9201 1.1859,4.9461 2.1544,10.8113 2.8941,17.5996 0.3477,3.4175 0.8344,10.6432 1.4451,21.6771 5.4683,-6.0435 8.7341,-9.786 9.786,-11.2311 5.7806,-7.8402 9.1083,-12.4348 9.982,-13.7952 1.4502,-2.3188 2.449,-4.3582 3.0243,-6.1056 0.4817,-1.3161 0.7181,-2.5602 0.7181,-3.7475 0,-1.1366 -1.0127,-2.4528 -3.0508,-3.9384 -2.0343,-1.4894 -3.0547,-3.1533 -3.0547,-4.9954 0,-1.4009 0.5576,-2.6488 1.6766,-3.7425 1.1151,-1.0923 2.4439,-1.6411 3.9738,-1.6411 1.8383,0 3.4618,0.7536 4.8626,2.2657 1.3959,1.5122 2.0963,3.3859 2.0963,5.6162 0,2.2341 -0.3489,4.3747 -1.0481,6.4355 -1.1379,3.3278 -3.2608,7.3914 -6.3748,12.1858 -3.104,4.7944 -8.1222,11.2223 -15.0394,19.2825 -0.8749,1.0026 -5.7363,6.0878 -14.5816,15.2365 l -2.4301,0 c -1.0532,-27.7219 -3.238,-45.0181 -6.5708,-51.8924 -1.0962,-2.234 -2.908,-3.3492 -5.4506,-3.3492 -1.0962,0 -2.645,0.196 -4.6603,0.593 l -0.4641,-2.3011 z" />
    <path
       id="path97"
       style="fill:#000000;fill-rule:evenodd"
       d="m 1235.7214,750.7988 -5.1206,17.8677 10.312,0 -1.119,4.1394 -10.2449,0 -11.2982,38.7521 c -1.2264,4.161 -1.8384,6.8502 -1.8384,8.0817 0,0.7409 0.1745,1.3111 0.5222,1.7043 0.3477,0.3958 0.7713,0.593 1.2492,0.593 1.0974,0 2.5426,-0.7675 4.3354,-2.2973 1.0482,-0.8749 3.3986,-3.568 7.0298,-8.0817 l 2.167,1.6411 c -4.0281,5.8691 -7.8363,10.0048 -11.4321,12.4171 -2.4478,1.6588 -4.9234,2.4933 -7.4217,2.4933 -1.9218,0 -3.4972,-0.6018 -4.7274,-1.8067 -1.2264,-1.1999 -1.8421,-2.7424 -1.8421,-4.6288 0,-2.3643 0.7092,-5.9778 2.1051,-10.8392 l 10.9681,-38.0289 -9.92,0 0.66,-2.5641 c 4.8121,-1.3111 8.8175,-3.2746 12.0201,-5.8792 3.1988,-2.6007 6.7668,-7.1271 10.7103,-13.5638 l 2.8852,0 z" />
    <path
       id="path99"
       style="fill:#000000;fill-rule:evenodd"
       d="m 1249.3194,814.777 c 1.8876,0 3.4668,0.6461 4.7602,1.9395 1.2935,1.2934 1.9395,2.8549 1.9395,4.6971 0,1.837 -0.66,3.3985 -1.9673,4.697 -1.3149,1.2934 -2.8941,1.9357 -4.7324,1.9357 -1.8371,0 -3.4024,-0.6423 -4.6958,-1.9357 -1.2985,-1.2985 -1.9357,-2.86 -1.9357,-4.697 0,-1.8422 0.6372,-3.4037 1.9357,-4.6971 1.2934,-1.2934 2.8587,-1.9395 4.6958,-1.9395 z" />
    <path
       id="path101"
       style="fill:#000000;fill-rule:evenodd"
       d="m 1311.7867,733.1296 -22.4623,78.1667 c -1.0974,3.8942 -1.6411,6.285 -1.6411,7.1587 0,0.6562 0.2086,1.1999 0.6195,1.6424 0.4148,0.4412 0.9319,0.66 1.5438,0.66 0.8383,0 1.7296,-0.3755 2.6931,-1.1202 2.2796,-1.7929 4.6616,-4.5757 7.1587,-8.3409 l 1.9723,2.0343 c -4.1571,5.8653 -7.9982,9.9643 -11.4941,12.2831 -2.583,1.6639 -5.0409,2.4983 -7.3559,2.4983 -1.6639,0 -3.0597,-0.5714 -4.1749,-1.7081 -1.1151,-1.1379 -1.6727,-2.449 -1.6727,-3.9435 0,-1.5741 0.7055,-4.8121 2.1013,-9.719 l 17.8007,-61.6152 c 1.4451,-5.0346 2.1683,-7.9249 2.1683,-8.6708 0,-1.052 -0.4147,-1.913 -1.2491,-2.5907 -0.8345,-0.6827 -2.1191,-1.0215 -3.8765,-1.0215 -1.0026,0 -2.5375,0.1555 -4.5934,0.4589 l 0,-2.4301 22.4623,-3.7424 z" />
    <path
       id="path103"
       style="fill:#000000;fill-rule:evenodd"
       d="m 1344.1021,750.7988 -5.1206,17.8677 10.312,0 -1.119,4.1394 -10.2462,0 -11.2982,38.7521 c -1.2264,4.161 -1.8371,6.8502 -1.8371,8.0817 0,0.7409 0.1783,1.3111 0.5222,1.7043 0.3477,0.3958 0.7713,0.593 1.2492,0.593 1.0962,0 2.5464,-0.7675 4.3354,-2.2973 1.0519,-0.8749 3.3986,-3.568 7.0285,-8.0817 l 2.1683,1.6411 c -4.0282,5.8691 -7.8364,10.0048 -11.4271,12.4171 -2.4541,1.6588 -4.9246,2.4933 -7.4267,2.4933 -1.9231,0 -3.4972,-0.6018 -4.7287,-1.8067 -1.2264,-1.1999 -1.8421,-2.7424 -1.8421,-4.6288 0,-2.3643 0.7093,-5.9778 2.1064,-10.8392 l 10.9669,-38.0289 -9.9188,0 0.66,-2.5641 c 4.8121,-1.3111 8.8175,-3.2746 12.0201,-5.8792 3.1988,-2.6007 6.7668,-7.1271 10.709,-13.5638 l 2.8865,0 z" />
    <path
       id="path105"
       style="fill:#000000;fill-rule:evenodd"
       d="m 1394.9425,779.7674 c 0,-2.8018 -0.8079,-5.0586 -2.4313,-6.7668 -1.6184,-1.7081 -3.6754,-2.5603 -6.1725,-2.5603 -5.5176,0 -11.2628,4.5542 -17.2444,13.6625 -5.9765,9.1071 -8.9654,17.8234 -8.9654,26.1416 0,3.2822 0.7232,5.7944 2.1734,7.5241 1.4401,1.7271 3.1709,2.5919 5.1863,2.5919 4.5504,0 10.2639,-4.9247 17.142,-14.7777 6.8767,-9.8517 10.3119,-18.4606 10.3119,-25.8153 z m 24.3715,-46.6378 -22.6014,77.5067 c -1.2264,4.2065 -1.8371,6.9627 -1.8371,8.2789 0,0.4375 0.1834,0.856 0.5576,1.2492 0.3742,0.3919 0.7586,0.5879 1.1505,0.5879 0.5753,0 1.2492,-0.2807 2.0382,-0.8509 1.4894,-1.0532 3.9877,-3.6805 7.4887,-7.8819 l 2.2353,1.3781 c -3.1532,4.3797 -6.3432,7.9262 -9.5635,10.642 -3.2114,2.712 -6.2218,4.0724 -9.0274,4.0724 -1.4894,0 -2.712,-0.5259 -3.6754,-1.5791 -0.9672,-1.0482 -1.4489,-2.5376 -1.4489,-4.4644 0,-2.4971 0.6599,-5.8476 1.9711,-10.049 l 2.5603,-8.1449 c -6.3521,9.8088 -12.1327,16.597 -17.3418,20.3622 -3.5907,2.5818 -7.0246,3.8752 -10.3081,3.8752 -3.3316,0 -6.2307,-1.4805 -8.7063,-4.4327 -2.4756,-2.9573 -3.7108,-6.9767 -3.7108,-12.0518 0,-6.5303 2.0785,-13.493 6.2395,-20.8932 4.1622,-7.3989 9.657,-13.421 16.4857,-18.0586 5.3874,-3.7248 10.3348,-5.5846 14.8485,-5.5846 2.363,0 4.4024,0.4817 6.1105,1.4451 1.7031,0.9584 3.3897,2.5603 5.0536,4.7944 l 6.4406,-22.8593 c 0.4766,-1.6183 0.8698,-2.9118 1.1771,-3.8752 0.531,-1.7536 0.7902,-3.1937 0.7902,-4.3354 0,-0.9192 -0.3262,-1.6867 -0.9811,-2.2973 -0.9243,-0.7447 -2.1064,-1.1202 -3.5465,-1.1202 -1.0077,0 -2.6766,0.1567 -5.0005,0.4602 l 0,-2.4314 22.6014,-3.7424 z" />
    <path
       id="path107"
       style="fill:#000000;fill-rule:evenodd"
       d="m 1424.9631,814.777 c 1.8864,0 3.4655,0.6461 4.759,1.9395 1.2934,1.2934 1.9395,2.8549 1.9395,4.6971 0,1.837 -0.66,3.3985 -1.9674,4.697 -1.3149,1.2934 -2.894,1.9357 -4.7311,1.9357 -1.8384,0 -3.4036,-0.6423 -4.6971,-1.9357 -1.2934,-1.2985 -1.9357,-2.86 -1.9357,-4.697 0,-1.8422 0.6423,-3.4037 1.9357,-4.6971 1.2935,-1.2934 2.8587,-1.9395 4.6971,-1.9395 z" />
    <path
       id="path109"
       style="fill:#000000;fill-rule:evenodd"
       d="m 1458.5933,814.777 c 1.8864,0 3.4656,0.6461 4.759,1.9395 1.2934,1.2934 1.9408,2.8549 1.9408,4.6971 0,1.837 -0.66,3.3985 -1.9674,4.697 -1.3161,1.2934 -2.8953,1.9357 -4.7324,1.9357 -1.8371,0 -3.4036,-0.6423 -4.697,-1.9357 -1.2934,-1.2985 -1.9357,-2.86 -1.9357,-4.697 0,-1.8422 0.6423,-3.4037 1.9357,-4.6971 1.2934,-1.2934 2.8599,-1.9395 4.697,-1.9395 z" />
    <path
       id="path111"
       style="fill:#000000;fill-rule:evenodd"
       d="m 1492.2248,814.777 c 1.8864,0 3.4656,0.6461 4.759,1.9395 1.2934,1.2934 1.9395,2.8549 1.9395,4.6971 0,1.837 -0.66,3.3985 -1.966,4.697 -1.3162,1.2934 -2.8954,1.9357 -4.7325,1.9357 -1.8383,0 -3.4036,-0.6423 -4.697,-1.9357 -1.2934,-1.2985 -1.9357,-2.86 -1.9357,-4.697 0,-1.8422 0.6423,-3.4037 1.9357,-4.6971 1.2934,-1.2934 2.8587,-1.9395 4.697,-1.9395 z" />
    <path
       id="path113"
       style="fill:none;stroke:#1b1918;stroke-width:0.5;stroke-linecap:butt;stroke-linejoin:miter;stroke-dasharray:none"
       d="m -888.6614,-378 a 11.3386,11.3386 0 0 1 11.3386,11.3386 A 11.3386,11.3386 0 1 1 -888.6614,-378 Z" />
    <path
       id="path115"
       style="fill:none;stroke:#1b1918;stroke-width:0.5;stroke-linecap:butt;stroke-linejoin:miter;stroke-dasharray:none"
       d="M 1500.6614,-378 A 11.3386,11.3386 0 0 1 1512,-366.6614 11.3386,11.3386 0 1 1 1500.6614,-378 Z" />
    <path
       id="path117"
       style="fill:none;stroke:#1b1918;stroke-width:0.5;stroke-linecap:butt;stroke-linejoin:miter;stroke-dasharray:none"
       d="m -888.6614,1147.3228 a 11.3386,11.3386 0 0 1 11.3386,11.3386 11.3386,11.3386 0 1 1 -11.3386,-11.3386 z" />
    <path
       id="path119"
       style="fill:none;stroke:#1b1918;stroke-width:0.5;stroke-linecap:butt;stroke-linejoin:miter;stroke-dasharray:none"
       d="m 1500.6614,1147.3228 a 11.3386,11.3386 0 0 1 11.3386,11.3386 11.3386,11.3386 0 1 1 -11.3386,-11.3386 z" />
    <path
       id="path121"
       style="fill:#0d4e8b;fill-rule:evenodd"
       d="m -346.3109,281.0602 0,10.2058 c -9.7506,0 -17.6591,1.7524 -23.7254,5.2407 -6.0739,3.4972 -11.8633,10.0262 -17.3809,19.5897 -3.6805,6.4406 -9.4737,21.7935 -17.3822,46.0701 l -104.2817,301.5406 -11.0351,0 -85.2458,-239.1895 -84.6932,239.1895 -9.9365,0 -111.1787,-310.6438 c -8.2738,-23.1717 -13.5183,-36.8733 -15.7221,-41.1063 -3.6805,-6.9893 -8.6885,-12.1807 -15.0355,-15.5843 -6.347,-3.4036 -14.9471,-5.1067 -25.7939,-5.1067 l 0,-10.2058 138.4872,0 0,10.2058 -6.6188,0 c -9.7493,0 -17.1938,2.2075 -22.346,6.6239 -5.1509,4.4113 -7.7251,9.7493 -7.7251,15.999 0,6.4405 4.0459,21.2447 12.1415,44.415 l 73.6568,209.9479 62.0703,-178.4935 -11.0301,-31.4544 -8.8314,-25.1022 c -3.8626,-9.1968 -8.1854,-17.2886 -12.9671,-24.2779 -2.3896,-3.4921 -5.3292,-6.4355 -8.8264,-8.8264 -4.5984,-3.3138 -9.1968,-5.7009 -13.7915,-7.1764 -3.4971,-1.1025 -9.0147,-1.655 -16.5527,-1.655 l 0,-10.2058 145.6611,0 0,10.2058 -9.9327,0 c -10.2994,0 -17.8412,2.2075 -22.6229,6.6239 -4.7767,4.4113 -7.1676,10.3916 -7.1676,17.9296 0,9.3802 4.1344,25.7547 12.4134,49.1083 l 71.7261,203.324 71.1774,-206.0853 c 8.0905,-22.8011 12.1415,-38.6218 12.1415,-47.4482 0,-4.233 -1.3339,-8.1854 -4.0054,-11.8646 -2.6678,-3.6755 -6.0221,-6.2484 -10.068,-7.7251 -6.9893,-2.5742 -16.0926,-3.8626 -27.3149,-3.8626 l 0,-10.2058 111.7363,0 z" />
    <path
       id="path123"
       style="fill:#0d4e8b;fill-rule:evenodd"
       d="m -226.0556,394.9977 0,203.0471 c 0,15.8207 1.1506,26.3463 3.448,31.587 2.3009,5.2407 5.7048,9.1525 10.2045,11.7269 4.5099,2.5778 12.7394,3.8625 24.6926,3.8625 l 0,9.9326 -122.7651,0 0,-9.9326 c 12.3236,0 20.5974,-1.1962 24.8303,-3.5858 4.233,-2.3908 7.5873,-6.3468 10.0667,-11.8644 2.4846,-5.5177 3.7247,-16.094 3.7247,-31.7262 l 0,-97.3874 c 0,-27.4045 -0.8254,-45.1471 -2.4806,-53.2426 -1.2883,-5.883 -3.3137,-9.9731 -6.0701,-12.2794 -2.7561,-2.2972 -6.5301,-3.4427 -11.3119,-3.4427 -5.1472,0 -11.4044,1.3782 -18.7591,4.1344 l -3.8588,-9.929 76.1374,-30.9004 12.1414,0 z" />
    <path
       id="path125"
       style="fill:#0d4e8b;fill-rule:evenodd"
       d="m -82.5995,448.5186 c 29.6122,-35.6823 57.8462,-53.5234 84.6933,-53.5234 13.7952,0 25.6598,3.4516 35.5925,10.3473 9.9289,6.8958 17.8373,18.2559 23.7241,34.0728 4.0459,11.0352 6.0663,27.9571 6.0663,50.7583 l 0,107.8686 c 0,16.0041 1.2934,26.8559 3.8676,32.5556 2.0205,4.5984 5.285,8.1853 9.7898,10.7582 4.5099,2.5831 12.8281,3.8626 24.9695,3.8626 l 0,9.9339 -124.9739,0 0,-9.9339 5.2407,0 c 11.7748,0 20.0006,-1.7928 24.6926,-5.3785 4.692,-3.5869 7.9527,-8.8719 9.7898,-15.8612 0.7359,-2.7613 1.1063,-11.4056 1.1063,-25.9367 l 0,-103.4523 c 0,-22.9895 -2.9927,-39.6801 -8.9654,-50.0717 -5.9766,-10.3879 -16.0483,-15.5894 -30.209,-15.5894 -21.887,0 -43.6805,11.9633 -65.3842,35.8656 l 0,133.2478 c 0,17.1053 1.0128,27.6853 3.037,31.7299 2.5742,5.3356 6.1156,9.2373 10.6205,11.7218 4.5048,2.4844 13.6536,3.7247 27.4488,3.7247 l 0,9.9339 -124.9739,0 0,-9.9339 5.5227,0 c 12.8672,0 21.5608,-3.2645 26.0657,-9.7898 4.5048,-6.5303 6.7617,-18.9929 6.7617,-37.3866 l 0,-93.7965 c 0,-30.348 -0.6916,-48.8314 -2.0698,-55.4502 -1.3819,-6.6239 -3.4971,-11.1288 -6.347,-13.5197 -2.8498,-2.3858 -6.6681,-3.5856 -11.4498,-3.5856 -5.1472,0 -11.3071,1.3781 -18.4835,4.1394 l -4.1344,-9.9339 76.1425,-30.9005 11.8595,0 0,53.5234 z" />
    <path
       id="path127"
       style="fill:#0d4e8b;fill-rule:evenodd"
       d="m 367.6354,272.5082 0,129.3852 -10.2045,0 c -3.3139,-24.8266 -9.2424,-44.5946 -17.7969,-59.3141 -8.5508,-14.7093 -20.7365,-26.3868 -36.5572,-35.0362 -15.8157,-8.643 -32.1813,-12.9658 -49.1033,-12.9658 -19.1257,0 -34.9426,5.8387 -47.4482,17.52 -12.512,11.6825 -18.7603,24.9644 -18.7603,39.8622 0,11.4094 3.9561,21.7972 11.8595,31.1736 11.4056,13.7952 38.5334,32.1902 81.3832,55.1784 34.9464,18.7603 58.8134,33.1486 71.5921,43.1761 12.7838,10.0262 22.6229,21.8377 29.5186,35.4508 6.9008,13.612 10.3436,27.8636 10.3436,42.7601 0,28.3238 -10.9859,52.7395 -32.9614,73.2471 -21.9806,20.5089 -50.2589,30.759 -84.8361,30.759 -10.8519,0 -21.0564,-0.8294 -30.6237,-2.4845 -5.7009,-0.9229 -17.5199,-4.2772 -35.4471,-10.0667 -17.9347,-5.7944 -29.2948,-8.6936 -34.0715,-8.6936 -4.5984,0 -8.2346,1.3781 -10.8973,4.1395 -2.6665,2.7613 -4.6427,8.461 -5.9323,17.1053 l -10.2045,0 0,-128.2827 10.2045,0 c 4.7817,26.8546 11.2185,46.9437 19.3141,60.2762 8.0867,13.3414 20.4596,24.4157 37.1008,33.2472 16.6502,8.8276 34.8972,13.2389 54.7638,13.2389 22.9933,0 41.1505,-6.0663 54.483,-18.2078 13.3401,-12.1364 20.0044,-26.4854 20.0044,-43.0369 0,-9.1981 -2.5299,-18.4847 -7.5873,-27.8636 -5.0586,-9.3802 -12.9216,-18.1143 -23.5901,-26.2098 -7.1688,-5.5176 -26.7585,-17.2393 -58.7565,-35.174 -32.003,-17.9297 -54.7675,-32.2294 -68.2833,-42.8992 -13.5146,-10.6647 -23.7684,-22.4357 -30.7628,-35.3118 -6.9892,-12.8685 -10.4814,-27.0342 -10.4814,-42.4844 0,-26.8521 10.2994,-49.9782 30.9006,-69.3846 20.5986,-19.4026 46.8072,-29.1039 78.6269,-29.1039 19.8615,0 40.9192,4.8753 63.1766,14.6209 10.2943,4.5984 17.5592,6.8957 21.7885,6.8957 4.7855,0 8.6923,-1.4237 11.7255,-4.2735 3.0382,-2.8498 5.4733,-8.5988 7.3155,-17.2431 l 10.2045,0 z" />
    <path
       id="path129"
       style="fill:#0d4e8b;fill-rule:evenodd"
       d="m 555.509,412.9299 c -9.7493,0 -19.5404,2.8953 -29.3795,8.6885 -9.8391,5.7945 -17.7969,15.9598 -23.867,30.4858 -6.0663,14.5324 -9.1032,33.2029 -9.1032,56.0041 0,36.7848 7.3104,68.5147 21.9312,95.1797 14.6247,26.6675 33.8895,40 57.7969,40 17.8412,0 32.5556,-7.3509 44.1433,-22.0704 11.5877,-14.7144 17.3771,-40.0038 17.3771,-75.8656 0,-44.8753 -9.6558,-80.1871 -28.9648,-105.9367 -13.0556,-17.6591 -29.702,-26.4854 -49.934,-26.4854 z m 8.5508,-17.9347 c 38.2564,0 68.9749,14.531 92.1452,43.5907 19.6795,24.8304 29.5186,53.3401 29.5186,85.5214 0,22.6228 -5.424,45.5226 -16.2758,68.698 -10.8519,23.1716 -25.7939,40.6473 -44.8298,52.4133 -19.0322,11.771 -40.2327,17.6591 -63.5914,17.6591 -38.0731,0 -68.3276,-15.1747 -90.7633,-45.5227 -18.9424,-25.5574 -28.4161,-54.2504 -28.4161,-86.0701 0,-23.1766 5.749,-46.2142 17.2431,-69.1089 11.4941,-22.8985 26.6245,-39.8217 45.3836,-50.7621 18.7603,-10.9416 38.6231,-16.4187 59.5859,-16.4187 z" />
    <path
       id="path131"
       style="fill:#0d4e8b;fill-rule:evenodd"
       d="m 944.4978,402.4472 0,153.1144 c 0,29.2417 0.6916,47.1321 2.0698,53.6574 1.3781,6.5303 3.5907,11.0794 6.6188,13.6536 3.0382,2.5818 6.5796,3.8626 10.6243,3.8626 5.7009,0 12.1414,-1.5577 19.309,-4.6882 l 3.8626,9.652 -75.5887,31.1774 -12.4133,0 0,-53.5196 c -21.7037,23.5421 -38.2565,38.3462 -49.6609,44.4164 -11.4056,6.0701 -23.4485,9.1032 -36.1374,9.1032 -14.1619,0 -26.4412,-4.0939 -36.829,-12.2742 -10.3929,-8.1854 -17.6098,-18.7161 -21.6595,-31.5883 -4.0459,-12.8723 -6.0701,-31.0839 -6.0701,-54.626 l 0,-112.8362 c 0,-11.9543 -1.2846,-20.2282 -3.8588,-24.8266 -2.5729,-4.5946 -6.3963,-8.1398 -11.4536,-10.6205 -5.0536,-2.4844 -14.2062,-3.6299 -27.4489,-3.4516 l 0,-10.2058 88.5596,0 0,169.1134 c 0,23.5458 4.0939,38.9923 12.2742,46.347 8.1854,7.3597 18.0687,11.0351 29.6564,11.0351 7.9085,0 16.8739,-2.4806 26.9014,-7.4482 10.0212,-4.9651 21.9313,-14.4388 35.7266,-28.4174 l 0,-143.1804 c 0,-14.344 -2.6223,-24.0415 -7.863,-29.1039 -5.2457,-5.0574 -16.1418,-7.7656 -32.6946,-8.1398 l 0,-10.2058 86.0751,0 z" />
    <path
       id="path133"
       style="fill:#0d4e8b;fill-rule:evenodd"
       d="m 1078.8519,319.4065 0,83.042 59.0372,0 0,19.309 -59.0372,0 0,163.8727 c 0,16.3732 2.3416,27.4084 7.0335,33.1042 4.6933,5.7047 10.7141,8.5546 18.0738,8.5546 6.0663,0 11.9531,-1.8864 17.654,-5.6554 5.6997,-3.769 10.111,-9.3359 13.2427,-16.6906 l 10.7583,0 c -6.4367,18.0282 -15.5438,31.5883 -27.311,40.6916 -11.771,9.1032 -23.9113,13.6574 -36.4143,13.6574 -8.4648,0 -16.7387,-2.3466 -24.8343,-7.0335 -8.0867,-4.6933 -14.0683,-11.4057 -17.9258,-20.1435 -3.8626,-8.7328 -5.7983,-22.2082 -5.7983,-40.4147 l 0,-169.9428 -40.0012,0 0,-9.1033 c 10.116,-4.0408 20.4596,-10.8961 31.0358,-20.5531 10.5749,-9.6571 20.0044,-21.1057 28.2783,-34.3446 4.2279,-6.9893 10.116,-19.768 17.6578,-38.35 l 8.5507,0 z" />
    <path
       id="path135"
       style="fill:#0d4e8b;fill-rule:evenodd"
       d="m 1236.6532,262.8512 0,184.8405 c 20.4153,-22.4396 36.6014,-36.829 48.5596,-43.176 11.9493,-6.347 23.9074,-9.518 35.8605,-9.518 14.3491,0 26.6688,3.9599 36.9669,11.8633 10.2993,7.9085 17.9309,20.3218 22.8997,37.2437 3.4972,11.7711 5.2407,33.2876 5.2407,64.5548 l 0,89.3852 c 0,15.999 1.2897,26.9444 3.8626,32.8274 1.8422,4.4164 4.9651,7.9123 9.3802,10.4865 4.4113,2.578 12.5068,3.8625 24.2779,3.8625 l 0,9.9327 -124.1445,0 0,-9.9327 5.7894,0 c 11.771,0 19.9564,-1.7928 24.5548,-5.3797 4.5984,-3.5857 7.8187,-8.8707 9.6558,-15.865 0.5487,-2.9396 0.8294,-11.5877 0.8294,-25.9317 l 0,-89.3852 c 0,-27.5867 -1.4262,-45.7009 -4.2773,-54.349 -2.8498,-8.6443 -7.3989,-15.1253 -13.6574,-19.4468 -6.2535,-4.3178 -13.7915,-6.4861 -22.6229,-6.4861 -9.0097,0 -18.3899,2.3909 -28.1392,7.1726 -9.7468,4.7855 -21.423,14.4426 -35.0362,28.9699 l 0,133.5246 c 0,17.2874 0.9672,28.0457 2.8941,32.2787 1.937,4.233 5.5226,7.7706 10.7633,10.6205 5.2407,2.8549 14.2997,4.2772 27.172,4.2772 l 0,9.9327 -125.2495,0 0,-9.9327 c 11.2223,0 20.0486,-1.7485 26.4892,-5.2407 3.6754,-1.8383 6.6188,-5.3342 8.8226,-10.4864 2.2075,-5.1472 3.3138,-15.6285 3.3138,-31.4493 l 0,-228.703 c 0,-28.8713 -0.6916,-46.6239 -2.0646,-53.2428 -1.3832,-6.6238 -3.501,-11.1287 -6.347,-13.5196 -2.8549,-2.3858 -6.6682,-3.5856 -11.4537,-3.5856 -3.8588,0 -10.1122,1.4716 -18.7603,4.4112 l -3.8588,-9.6519 75.5887,-30.9018 12.6902,0 z" />
    <path
       id="path137"
       style="fill:#0a0101;fill-rule:evenodd"
       d="m -251.6433,229.9302 18.9171,38.3323 42.3062,6.146 -30.611,29.8347 7.2206,42.1329 -37.8329,-19.8931 -37.8316,19.8931 7.2257,-42.1329 -30.6161,-29.8347 42.3062,-6.146 18.9158,-38.3323 z" />
  </g>
</svg>
